<svg width="86" height="86" viewBox="0 0 86 86" fill="none" xmlns="http://www.w3.org/2000/svg">
<path d="M66.168 16.6151C67.0236 16.6057 67.7701 16.6579 67.4482 16.6815C69.1911 16.6181 69.2285 16.6902 69.4543 16.5676C70.5731 16.5074 71.7664 16.5907 70.4937 16.6405L73.7192 16.5656L71.7905 16.5466C72.0531 16.4957 72.8236 16.5032 73.6048 16.5088L74.1982 16.5123C74.4916 16.5199 74.775 16.6204 75.0077 16.7994C75.2022 16.9493 75.3553 17.1465 75.4524 17.3721C75.5383 17.5688 75.5655 17.7481 75.5809 17.8752L75.5793 17.8095C75.5628 17.4615 75.4183 17.1317 75.1737 16.8836C74.929 16.6355 74.6013 16.4865 74.2535 16.4651L74.198 16.4628L74.1438 16.4623L74.0635 16.4624L73.7378 16.4633L71.9921 16.4683L72.1666 16.4345C71.3716 16.471 69.8275 16.4557 69.2892 16.4414C69.374 16.4246 69.3199 16.3974 69.9357 16.3944C65.7202 16.3867 68.8002 16.5726 65.3023 16.6064C65.5909 16.6035 65.8795 16.6064 66.168 16.6151ZM62.587 16.3657L61.1166 16.4935L58.6497 16.4606C58.6216 16.5047 56.8245 16.5404 58.0413 16.5792C58.2793 16.5721 58.7495 16.559 59.1292 16.563C58.8539 16.6583 55.8486 16.6106 56.5736 16.707C58.5245 16.6818 58.824 16.7028 60.025 16.6253C61.8135 16.6343 63.1161 16.6561 63.9513 16.691C64.4822 16.6766 64.5568 16.618 65.2314 16.6064L64.7733 16.6101L64.7004 16.4668C64.1377 16.497 63.6059 16.4827 62.9818 16.4856L65.8695 16.3181C64.9383 16.1839 62.1008 16.2627 60.9671 16.2069C62.3734 16.3279 59.8476 16.2671 62.587 16.3657ZM63.9377 58.9936C63.5053 59.4297 63.4013 59.5815 63.3508 59.6563L68.237 54.766C68.0573 54.8925 66.6164 56.2675 67.5413 55.3107C67.0923 55.7008 65.8394 57.004 65.6901 57.2254L66.0039 56.8303C64.9297 58.0086 64.0583 58.6757 64.7617 57.9107L64.6672 58.0063L61.748 61.3259C62.905 60.1924 62.5612 60.375 63.9377 58.9936ZM65.3814 18.4532C64.4856 18.4663 64.3756 18.4799 64.4774 18.4938C64.7789 18.4851 65.0803 18.4716 65.3814 18.4532ZM61.0659 62.102L60.1513 63.1418C60.5259 62.7338 60.847 62.3674 61.0659 62.102ZM66.8825 54.3802C66.8812 54.375 66.8889 54.3614 66.8585 54.3827L66.4518 54.8535L66.4631 54.8424C66.6168 54.6728 66.755 54.5206 66.8825 54.3802ZM53.6874 41.8774C53.6068 41.7698 53.5357 41.6781 53.4331 41.5546C53.5196 41.6608 53.6044 41.7685 53.6874 41.8774ZM64.6388 61.9052L66.7518 59.6715C66.4906 59.9898 67.5305 58.9328 67.1059 59.4238C67.267 59.2536 68.0322 58.4659 67.8058 58.6631L67.3644 59.1082C68.4273 57.8791 67.7013 58.5413 69.5381 56.5779C68.3092 57.7082 67.8371 58.2707 67.25 58.9332L66.6929 59.5133L65.0019 61.4366L64.6388 61.9052ZM22.5535 19.1204L22.5199 19.1294C22.5507 19.1262 22.5562 19.1232 22.5535 19.1204ZM22.3856 19.1671L22.5199 19.1294C22.3547 19.1482 21.7223 19.1662 22.3856 19.1671ZM61.3709 61.6893C61.3568 61.7345 61.2502 61.8787 61.0659 62.102L61.748 61.326L61.3709 61.6893Z" fill="#202020"/>
<path d="M62.8482 59.8493L64.6672 58.0065L65.2991 57.2884L62.8482 59.8493ZM55.1082 45.2528C55.016 44.8168 54.8923 44.3881 54.7382 43.97L54.5434 43.4599C54.4916 43.3188 54.6094 43.5175 54.7441 43.801C54.8803 44.0839 55.0206 44.4556 55.0864 44.6229C55.1475 44.7914 55.1669 44.745 55.0028 44.2046C54.7765 43.5603 54.5481 43.1557 54.3448 42.8172C54.1344 42.482 53.9435 42.2114 53.6874 41.8773C53.9069 42.1681 54.1048 42.4748 54.2793 42.7947C54.4011 43.0211 54.4654 43.1684 54.4994 43.2585C54.5652 43.4399 54.5128 43.3928 54.4606 43.3483C54.4083 43.3033 54.3564 43.261 54.4202 43.4441C54.4513 43.536 54.5103 43.6846 54.5991 43.9228C54.6863 44.1616 54.8051 44.4902 54.9238 44.9506C54.8039 44.7018 54.5912 44.0536 54.2435 43.3653C53.9037 42.6733 53.4161 41.9567 53.0056 41.4662C52.7878 41.176 52.7254 41.092 52.7767 41.1211C52.8257 41.152 52.9831 41.3001 53.1657 41.5022C53.3493 41.7032 53.5569 41.9587 53.727 42.184C53.898 42.4086 54.0332 42.6017 54.1001 42.6598C53.6956 42.0009 53.4741 41.7671 53.3375 41.6129C53.1956 41.4624 53.1185 41.4017 52.8759 41.1841C52.0705 40.2893 51.0027 39.6001 49.9733 39.1824C48.9413 38.7552 47.961 38.5868 47.2535 38.4562C47.0634 38.4451 46.8729 38.4411 46.6824 38.4442L46.2049 38.4566C45.9242 38.4662 45.7218 38.4772 45.5453 38.4895C45.1922 38.5139 44.9431 38.5426 44.3804 38.5728C44.2684 38.6341 44.996 38.6501 45.8421 38.663L46.4877 38.6728L46.7802 38.6805C46.8704 38.6833 46.9581 38.6911 47.0427 38.6959C47.3805 38.7242 47.6627 38.7732 47.8125 38.8207C47.687 38.7903 47.4386 38.7435 47.513 38.7341C47.513 38.7341 47.8755 38.7781 48.2309 38.8567C48.4678 38.9078 48.7023 38.9695 48.9337 39.0416C48.6053 38.9361 48.45 38.8928 48.4185 38.8711C48.387 38.8508 48.4788 38.8538 48.6349 38.8797C48.9487 38.9235 49.5134 39.0851 49.8597 39.2296C50.168 39.3568 50.4677 39.5038 50.757 39.6698C51.0347 39.8304 51.2243 39.9676 51.1531 39.9402C51.1531 39.9402 50.9762 39.8344 50.7953 39.737C50.6139 39.6401 50.4286 39.5519 50.4286 39.5519C50.889 39.8094 51.3928 40.1035 51.8663 40.461C52.3394 40.8165 52.7812 41.2351 53.1097 41.6907C53.1279 41.7508 52.8434 41.4387 52.7869 41.4041C53.2347 41.8393 53.6217 42.3264 53.9733 42.923C54.323 43.5198 54.6462 44.2261 54.8832 45.132C54.8832 45.132 54.7935 44.874 54.6878 44.6246C54.5835 44.3745 54.4622 44.1344 54.4624 44.1344C54.6198 44.469 54.7886 44.9303 54.9028 45.4809C54.9637 45.772 55.0069 46.0666 55.0323 46.363C55.0604 46.6798 55.062 46.9781 55.0605 47.3766C55.0589 48.8891 55.0316 50.5228 54.9962 51.8603C55.0169 51.5635 55.0311 51.029 55.0547 51.35C55.0837 52.9212 55.0004 54.1081 54.9364 53.3803C55.0372 54.9152 54.8516 59.2286 54.9824 61.3205L55.0592 62.5146L55.0688 62.6639L55.0736 62.7385L55.0783 62.8487L55.0975 63.3988L55.1358 64.4741C55.1868 65.7974 55.2379 67.1204 55.1868 68.6905L58.1831 65.4021L58.8519 64.6602L59.1733 64.3024L59.3689 64.0701L60.1517 63.1414C59.8942 63.4225 59.6327 63.6998 59.3671 63.9732L59.1262 64.1649L59.0723 64.2085L59.0006 64.2709L58.8721 64.3819C58.7149 64.5173 58.6149 64.6009 58.5914 64.6085C58.5679 64.616 58.6213 64.5468 58.7696 64.378L59.3617 63.704L59.0407 64.0565L58.7463 64.3847L58.2713 64.9258C57.9509 65.2871 57.5147 65.7552 56.3369 66.9362C57.2419 65.96 57.4407 65.605 55.7991 67.2127L55.8028 66.7257L55.7542 64.1624L55.7243 62.9017L55.6914 61.9707C55.6456 60.7944 55.593 59.6808 55.5386 58.5784C55.4301 56.3735 55.3157 54.2132 55.2381 51.6861C55.2792 51.5927 55.294 50.554 55.3009 49.2975L55.3076 47.3404C55.3095 47.0042 55.3096 46.7351 55.2937 46.4687C55.2805 46.2263 55.2575 45.9846 55.2245 45.7441C55.271 45.9048 55.3123 46.1076 55.3466 46.3425C55.3619 46.4601 55.3768 46.5858 55.3867 46.7185C55.3976 46.8615 55.4049 47.0047 55.4084 47.1481C55.4279 47.7836 55.4386 48.5129 55.4475 49.2556L55.4541 47.4886L55.4551 46.9867C55.4551 46.5412 55.422 46.0962 55.3563 45.6556L55.2346 45.4515L55.1082 45.2528Z" fill="#202020"/>
<path d="M55.5625 57.6091C55.5695 57.4695 55.5746 57.3298 55.5777 57.1901C55.571 57.2667 55.5657 57.3917 55.5625 57.6091ZM55.4451 49.708C55.4482 49.7266 55.4506 49.7201 55.454 49.7266L55.4476 49.2555L55.4451 49.708ZM60.3434 62.4548L60.9275 61.7945L60.4586 62.294C60.3052 62.4629 60.2365 62.5473 60.3434 62.4548ZM61.2107 61.7917L61.1132 61.9368L61.371 61.6892C61.3846 61.6501 61.3455 61.6677 61.2107 61.7917ZM39.3073 37.5909L38.7931 37.6087C39.1029 37.6072 39.2364 37.6 39.3073 37.5909Z" fill="#202020"/>
<path d="M52.6028 40.5491C52.9159 40.8384 53.0714 41.003 53.1734 41.0954C53.2732 41.1899 53.3168 41.2155 53.3729 41.2598C53.4299 41.3035 53.5016 41.3643 53.6509 41.5366C53.7976 41.7105 54.0285 41.9938 54.3389 42.5206C54.3389 42.5206 54.2504 42.3646 54.1555 42.2124C54.0604 42.0602 53.9591 41.9119 53.9591 41.9119C54.4871 42.6116 55.0637 43.706 55.3487 44.9318C55.4939 45.5414 55.5738 46.1647 55.5871 46.7912L55.5894 48.6254C55.5406 48.3716 55.53 49.9895 55.4542 49.7265C55.472 51.264 55.489 52.787 55.5671 53.5792C55.5416 54.5319 55.6104 55.9789 55.578 57.19C55.6239 56.6787 55.7332 58.9143 55.6771 55.9668C55.6833 56.2048 55.6939 56.0554 55.7003 56.2907C55.7643 54.3918 55.6558 53.6306 55.6543 51.9949C55.6995 51.0171 55.7273 53.5941 55.7455 52.6713C55.7245 51.65 55.7381 50.0478 55.7356 48.7178C55.7344 48.0528 55.7292 47.4557 55.7136 47.0336C55.6983 46.6315 55.6499 46.4037 55.6109 46.4375C55.558 45.7444 55.4791 45.3562 55.4354 45.0863C55.3886 44.8166 55.3652 44.6654 55.3222 44.461C55.1253 43.9438 54.8322 43.2128 54.3878 42.468C53.9486 41.7216 53.3546 40.9699 52.7078 40.3706C52.0639 39.7676 51.378 39.3178 50.8519 39.052C50.3253 38.784 49.968 38.684 49.9529 38.7371C50.3224 38.8807 50.796 39.1041 51.2834 39.3976C51.7715 39.6898 52.2707 40.0541 52.7162 40.4358L52.6028 40.5491ZM69.1501 54.1751L69.5943 53.5162L70.6779 52.4183L70.925 52.1691L70.9855 52.1081L71.0155 52.0777L71.0305 52.0626L71.0379 52.055L71.0416 52.0515L71.0434 52.0495L71.2561 52.2628C71.2613 52.2683 71.2671 52.2732 71.2734 52.2774C71.2804 52.2792 71.2537 52.2739 71.2673 52.2752C71.2713 52.2747 71.2777 52.2715 71.2744 52.2732C71.276 52.2772 71.2601 52.2678 71.2762 52.2972L71.2448 52.2752L71.243 52.2739C71.2492 52.2808 71.2263 52.2564 71.2562 52.289L71.2567 52.2885L71.2581 52.2871L71.2608 52.2843L71.268 52.2759C71.2782 52.2579 71.2663 52.2843 71.2697 52.2803C71.2694 52.2771 71.2687 52.274 71.2676 52.271C71.2692 52.2658 71.2599 52.2732 71.2799 52.2745C71.2826 52.2752 71.297 52.2624 71.2893 52.2729L71.2692 52.3016L71.268 52.3034C71.2179 52.2611 71.6998 52.679 71.4951 52.503L71.4921 52.506L71.486 52.5121L71.4737 52.5241L71.4494 52.5483L71.3525 52.6446L71.16 52.8357L67.789 56.1907C67.5644 56.3859 67.8883 56.0434 68.0526 55.8697C66.1345 57.8126 63.2236 60.6787 61.8676 62.1333C61.2525 62.7467 59.6061 64.3253 60.1847 63.6835L59.7218 64.1713L59.4729 64.4267L59.084 64.8149C59.0353 64.8443 59.0966 64.7721 59.2142 64.6478L59.5448 64.3063C59.749 64.0984 59.968 63.8772 59.9622 63.8515C59.687 64.1214 59.5733 64.2201 59.5228 64.2951C59.9482 63.8032 58.9162 64.6401 61.057 62.504C61.9751 61.7661 59.5842 63.9977 60.1726 63.6081C60.8826 62.8996 60.7615 62.9436 60.8101 62.8707C61.7163 61.969 61.7174 62.0177 61.6919 62.0886C62.0074 61.7114 63.187 60.6176 63.6185 60.0923C65.3684 58.327 63.5975 60.2626 64.7444 59.1136L65.3054 58.351L67.233 56.4613C69.9607 53.6628 66.664 56.6825 69.7652 53.4673C69.5839 53.7011 69.832 53.5232 70.3119 53.106C70.6055 52.8491 70.8951 52.5877 71.1806 52.3219L71.2431 52.2638L71.247 52.2603L71.249 52.2584L71.25 52.2574L71.2362 52.2708L71.2443 52.2638L71.2604 52.2495L71.2681 52.2426L71.2651 52.2465L71.2584 52.2535C71.2539 52.2601 71.2611 52.2567 71.2611 52.2591C71.2639 52.2618 71.2665 52.2647 71.2687 52.268C71.2715 52.2695 71.2693 52.2789 71.2717 52.2708C71.2722 52.2693 71.2725 52.2695 71.2695 52.2739L71.2648 52.2799L71.2646 52.2804L71.2646 52.2806L71.2505 52.2661L71.2515 52.2673L71.2556 52.2717C71.2631 52.2801 71.2871 52.3056 71.2732 52.2918C71.2975 52.3164 71.2386 52.2557 71.2636 52.2813C71.2633 52.2814 71.2628 52.2816 71.2636 52.2809L71.271 52.271C71.2734 52.2673 71.2705 52.2719 71.27 52.2752C71.2687 52.2876 71.2698 52.2749 71.2665 52.2698L71.27 52.2752C71.2729 52.2754 71.2676 52.2799 71.2771 52.2759L71.2865 52.2715C71.2891 52.2703 71.295 52.2653 71.2881 52.2742L71.2764 52.291L71.2705 52.2996L71.2676 52.3038C71.2463 52.3105 71.2957 52.2955 71.2903 52.2974L71.2895 52.2984L71.2878 52.3002L71.2598 52.3296L71.0313 52.5685L70.5563 53.064C69.9111 53.7354 69.2298 54.4346 68.6472 54.9874C70.3267 53.4656 66.4538 57.2001 67.3746 56.4596C68.1231 55.6259 69.4361 54.3011 70.4878 53.2956L70.1599 53.6421C70.4238 53.3824 70.6824 53.1174 70.9356 52.8471L71.3051 52.4506L71.3515 52.4005L71.3631 52.3879L71.3689 52.3817L71.3704 52.38L71.3711 52.3794C71.3248 52.3461 71.4761 52.4526 71.2671 52.3048L71.2697 52.3013L71.2896 52.2725C71.2707 52.2804 71.2678 52.2747 71.2675 52.2719C71.2651 52.268 71.2676 52.2722 71.2683 52.2759C71.2698 52.288 71.2685 52.2759 71.2718 52.2703C71.272 52.2698 71.272 52.2705 71.2692 52.2742L71.2628 52.2821L71.2577 52.2875L71.2564 52.2888L71.2557 52.2895L71.2556 52.2897C71.2263 52.2572 71.248 52.2809 71.2418 52.274L71.2438 52.2754L71.2601 52.2868C71.2735 52.2703 71.2776 52.273 71.2734 52.2737C71.2702 52.2751 71.2668 52.2759 71.2633 52.2761C71.2671 52.2764 71.2708 52.2774 71.2744 52.2789C71.2752 52.2792 71.274 52.2789 71.2687 52.275L71.2579 52.2656L71.1991 52.2117L71.1821 52.2282L71.1484 52.2609L70.8672 52.5304C70.1202 53.2837 70.2325 53.1147 70.3408 52.9594L69.5218 53.8188C69.3053 54.0434 69.1622 54.1852 69.1501 54.1751ZM70.7632 52.5198L70.9216 52.3644L71.0839 52.2053L71.1291 52.161L71.1405 52.1497L71.2576 52.2641L71.2624 52.2685C71.266 52.2717 71.2695 52.2746 71.2734 52.2774C71.2794 52.2798 71.2611 52.2739 71.2638 52.2754C71.2646 52.2757 71.2708 52.2742 71.2702 52.2744C71.2574 52.2764 71.2671 52.2744 71.275 52.2781C71.2755 52.2784 71.2725 52.2771 71.2653 52.271L71.2591 52.2655L71.1346 52.1405L71.1173 52.158L71.0479 52.228L70.7632 52.5198ZM42.7383 16.3843L43.1693 16.3959C43.0751 16.3892 42.9118 16.3862 42.7383 16.3843ZM44.8688 55.3868L45.4468 55.9712C45.256 55.7746 45.0634 55.5798 44.8688 55.3868ZM53.406 62.0898L53.3728 60.8892C53.3749 61.3628 53.388 61.7342 53.406 62.0898ZM32.9365 16.3744L32.8964 16.3734L32.7069 16.381L32.9365 16.3744ZM37.2081 39.8813C36.9854 39.8668 36.7624 39.8563 36.5393 39.8499C36.5729 39.8642 36.8228 39.8742 37.2081 39.8813ZM53.4122 62.311L53.4149 62.2381L53.406 62.0898L53.4122 62.311ZM37.6689 52.7433C37.7317 52.9875 37.8412 53.2173 37.9912 53.4199C38.0241 53.4631 38.0466 53.4932 38.0947 53.5477L38.1277 53.5845L38.1501 53.6082L38.1743 53.6322L38.207 53.6648L38.2196 53.6766L38.2453 53.7008L38.1618 53.6178L38.1472 53.6028L38.1108 53.5629C38.0145 53.4554 37.9304 53.3378 37.8598 53.212C37.7769 53.0644 37.7127 52.9069 37.6689 52.7433ZM38.9201 50.8619C38.7667 50.9347 38.6265 51.0324 38.5052 51.1512C38.4011 51.2527 38.3123 51.3688 38.2415 51.4958C38.2413 51.4958 38.2693 51.4438 38.3201 51.3714C38.349 51.3302 38.3799 51.2905 38.4126 51.2523C38.4301 51.231 38.4499 51.2106 38.4696 51.1895L38.5193 51.1392C38.5404 51.1191 38.5719 51.091 38.5965 51.0704L38.6636 51.0175C38.7042 50.9873 38.7462 50.959 38.7894 50.9326C38.8316 50.9067 38.8753 50.8831 38.9201 50.8619ZM58.8932 67.2449L59.6612 66.4479C59.2782 66.8342 59.0543 67.0694 58.8932 67.2449ZM39.3334 54.37C39.3836 54.4108 39.4337 54.4518 39.4685 54.4776C39.3573 54.3725 39.3 54.3271 39.3334 54.37ZM49.7705 16.8086L49.7033 16.8091L49.6753 16.8257L49.7705 16.8086ZM52.4615 16.6013L53.4337 16.5896C53.1096 16.5882 52.7855 16.5922 52.4615 16.6013ZM21.0856 39.6168C20.7772 39.5793 20.0652 39.4496 20.4028 39.4736C20.1094 39.4471 19.9695 39.4453 20.0568 39.4788C20.1445 39.5091 20.4615 39.5823 21.0856 39.6168ZM44.3757 17.6997C44.552 17.6805 44.7712 17.6658 44.9915 17.6513C44.5819 17.672 44.2227 17.6891 44.3757 17.6997ZM44.9915 17.6513L45.5914 17.6192C45.3806 17.6283 45.1781 17.639 44.9915 17.6513ZM28.5868 38.4709C28.6597 38.4806 28.7724 38.4885 28.9256 38.4912C28.8807 38.4719 28.7585 38.4677 28.5868 38.4709ZM54.2193 16.6123C54.3938 16.5783 58.6214 16.5046 55.0657 16.4873C55.2028 16.3816 57.3471 16.4384 58.2951 16.4122C57.6064 16.3875 58.6376 16.3443 58.4285 16.3067C57.9581 16.3195 57.3993 16.3499 56.6221 16.3423C56.2648 16.2941 57.4442 16.2614 58.365 16.2793C57.2303 16.2236 59.8046 16.1955 58.1988 16.1529C54.7661 16.1902 52.3403 16.2284 49.9264 16.3828C51.883 16.3574 54.072 16.3259 55.6768 16.3684L55.0022 16.4597C53.1883 16.3793 52.0688 16.4394 50.2848 16.4308L54.2922 16.4794C56.1694 16.5555 54.9135 16.5731 53.4337 16.5896C53.7976 16.5908 54.1269 16.5961 54.2193 16.6123ZM51.5192 17.4141L51.5864 17.4168C51.6452 17.4135 51.7179 17.4115 51.7552 17.4076L51.5192 17.4141ZM57.4413 66.0819L57.6603 65.8138C57.468 66.0282 57.4131 66.0985 57.4413 66.0819ZM49.1287 16.9715L49.1315 16.9715C49.1045 16.9725 49.0978 16.9725 49.1287 16.9715ZM52.3572 65.0291C52.3676 65.036 52.378 65.0427 52.3953 65.056C52.3715 65.0361 52.3695 65.0378 52.3572 65.0291ZM49.3193 64.7768C49.3274 64.7909 49.3279 64.7969 49.3512 64.8263C49.4841 64.9518 49.4245 64.8863 49.3193 64.7768ZM52.3465 65.0303C52.3485 65.0282 52.3465 65.0224 52.3572 65.0289C52.3505 65.0264 52.3379 65.0178 52.3465 65.0303ZM55.1001 66.5401C55.1001 66.5401 55.0844 66.6908 55.0692 66.9374C55.0778 67.0649 55.0877 66.9812 55.1001 66.5401ZM23.0771 40.0639C23.4839 40.0652 23.7889 40.0629 24.0464 40.059C23.7233 40.0561 23.4002 40.0578 23.0771 40.0639ZM52.3953 65.056C52.463 65.1099 52.5568 65.1897 52.7083 65.3237C52.5416 65.1755 52.4511 65.0995 52.3953 65.056Z" fill="#202020"/>
<path d="M54.6386 52.9748L54.6487 53.2278L54.6532 53.0775L54.6386 52.9748Z" fill="#202020"/>
<path d="M54.7057 48.6847C54.7162 48.8312 54.7269 48.8982 54.7363 48.9805C54.7267 48.5977 54.7224 48.1348 54.7192 47.6505C54.715 47.1698 54.7256 46.6553 54.6696 46.1807C54.5695 45.2311 54.286 44.4738 54.1845 44.3345C54.2646 44.5607 54.3318 44.7911 54.3859 45.0249C54.459 45.3369 54.5227 45.7056 54.5509 46.0463C54.6112 46.7287 54.5524 47.2871 54.5307 47.0574C54.5551 48.1249 54.4869 49.7026 54.5028 50.2774C54.5559 48.5252 54.5848 50.0881 54.6177 51.2711C54.5893 52.3469 54.5395 51.0687 54.5215 51.9952L54.5322 54.4847L54.545 52.3162L54.6386 52.975L54.6297 52.7539C54.5861 49.085 54.7665 52.442 54.7057 48.6847ZM54.7363 48.9805C54.7405 49.1765 54.7482 49.3725 54.7593 49.5682C54.7578 49.2221 54.7482 49.0877 54.7363 48.9805ZM66.6109 55.9983C66.6759 55.9722 68.2276 54.5008 68.1496 54.477L66.7792 55.8155L66.6109 55.9983ZM10.902 28.6067C10.9122 28.8475 10.9316 29.0879 10.9603 29.3272L10.9883 29.4651C10.9769 29.3186 10.918 28.8469 10.902 28.6067Z" fill="#202020"/>
<path d="M54.4742 46.4039C54.5118 46.79 54.5177 46.9632 54.5308 47.0574C54.5254 46.8046 54.5052 46.5728 54.4742 46.4039ZM11.0667 28.4646C11.0732 28.1621 11.1125 27.7197 11.1443 27.6585C11.17 27.0473 11.1795 26.6139 11.279 25.9948C11.158 26.6909 11.0628 27.5052 11.0667 28.4646Z" fill="#202020"/>
<path d="M65.6901 56.876L65.2989 57.2884L65.4946 57.0659L64.4394 58.0903L64.0193 58.5267C64.0692 58.475 64.1157 58.4201 64.1584 58.3622L63.8192 58.6894C63.0439 59.5699 61.0219 61.6689 60.4585 62.2944C60.0552 62.7209 59.6488 63.1444 59.2392 63.5649C58.8206 63.9948 58.3982 64.4209 57.9721 64.8433C58.1512 64.6633 58.3303 64.4833 58.5093 64.3031C58.6602 64.1478 58.8111 63.9925 58.9621 63.8372C59.1836 63.6032 59.3037 63.4633 59.1778 63.5604L57.7618 64.8747C57.2913 65.3121 56.8069 65.7747 56.0893 66.5117C56.0833 66.1101 56.0717 65.646 56.0525 65.0995C56.0529 65.5988 56.0534 66.098 56.0534 66.5984L56.3163 66.3345C56.2242 66.4331 56.1322 66.5319 56.0448 66.6192L55.8945 62.7635C55.9111 62.4434 55.9242 62.3972 55.9358 62.5161C55.9438 62.6146 55.9492 62.7133 55.9519 62.8121L55.9664 63.3632C55.9852 64.1835 56.003 65.238 56.0317 65.4826C56.0121 64.6853 56.0104 63.8693 56.0169 63.1131L56.0315 62.1288L56.0507 61.2604C56.0761 60.1488 56.0942 59.2278 56.025 58.5687C56.107 58.3831 56.2439 58.0713 56.2356 56.2054C56.1421 57.5508 56.1755 55.0865 56.0754 56.1904C56.0285 55.5456 56.1049 54.1086 56.0436 54.0014L56.0776 54.176C56.2074 50.9894 56.004 49.9463 55.937 48.5831L55.9282 47.2425C55.9294 46.8216 55.9167 46.4531 55.8805 46.0894C55.8156 45.4242 55.6806 44.7677 55.4778 44.1309C55.2879 43.5338 55.0374 42.9577 54.7303 42.4116C54.4169 41.8543 54.0292 41.3015 53.5228 40.7447C53.5023 40.6835 53.385 40.4721 53.1443 40.1801C52.9038 39.8897 52.5365 39.518 52.027 39.1688C51.774 39.0312 51.0523 38.6027 50.3058 38.3241C49.5634 38.0343 48.8173 37.8927 48.6723 37.9107C49.0621 38.008 49.4472 38.1232 49.8264 38.2559L50.4377 38.4715C50.7516 38.5871 50.9767 38.6466 51.5424 38.9734C51.9748 39.306 51.9719 39.3492 52.023 39.4051C52.0668 39.4688 52.1743 39.5345 52.7106 40.0315C52.4956 39.8302 52.1246 39.5217 51.6402 39.2109C51.102 38.8656 50.5292 38.5776 49.9311 38.3516C49.327 38.1236 48.702 37.9557 48.065 37.8504C47.4843 37.7533 46.9827 37.7214 46.6589 37.6965L46.8878 37.6937L47.1169 37.6965C46.6063 37.6587 46.1693 37.647 45.7755 37.6154C45.38 37.5875 45.0162 37.5573 44.6078 37.5331C43.7912 37.4849 42.7961 37.4617 41.0108 37.5329L39.3069 37.5914C39.389 37.5818 39.3983 37.5707 39.4423 37.5622C36.6533 37.5523 37.4147 37.4439 34.3357 37.5294C34.5737 37.5229 34.4242 37.5123 34.6661 37.5059C32.911 37.4525 31.1411 37.5598 29.8141 37.5823C29.0044 37.5029 30.0065 37.5042 30.5073 37.4466C27.4199 37.4159 24.0879 37.5521 22.1706 37.649L21.8554 37.6399C21.6208 37.6317 21.3865 37.6144 21.1532 37.588C20.6436 37.5363 20.1449 37.4216 20.1449 37.4216C20.7423 37.5259 21.416 37.5546 21.8874 37.5244C22.3543 37.4962 22.6222 37.4612 22.443 37.4379C21.8973 37.4476 21.6712 37.4575 21.3912 37.4486C21.1118 37.4347 20.7692 37.4293 20.0026 37.2632C20.2737 37.2716 20.9281 37.3473 21.6552 37.307C20.8604 37.2518 20.427 37.159 20.179 37.1243C19.9315 37.0838 19.8692 37.0887 19.8366 37.0992C19.804 37.1098 19.8009 37.1254 19.6719 37.0955C19.5447 37.0609 19.286 36.9896 18.7737 36.762C18.3036 36.5866 17.9389 36.4294 17.6734 36.3195C17.4076 36.2098 17.2412 36.1475 17.1774 36.1457C17.1774 36.1457 16.7898 35.8936 16.4334 35.6031C16.0738 35.3164 15.7489 34.9934 15.7489 34.9936C15.6495 34.9543 15.1666 34.5604 14.6674 33.9582C14.16 33.3636 13.6645 32.5528 13.3609 31.8697C13.3099 31.7923 13.4063 32.0793 13.5796 32.4366C13.7496 32.7954 14.0076 33.2156 14.1845 33.4397C14.1265 33.4122 13.8613 33.0722 13.586 32.5995C13.3094 32.1282 13.0408 31.5186 12.8827 31.0241C12.8915 30.9213 12.7596 30.4688 12.6477 29.8474C12.5334 29.2269 12.4566 28.4337 12.4868 27.6908C12.5095 26.9474 12.6335 26.2607 12.7463 25.845C12.8616 25.4288 12.9368 25.2768 12.9014 25.5799C13.1837 24.471 13.7219 23.3011 14.5108 22.2673C15.2939 21.2299 16.3257 20.3405 17.4513 19.7143C18.5757 19.0826 19.7873 18.7219 20.8885 18.5849C21.4375 18.51 21.9698 18.5053 22.4334 18.5002L23.7029 18.4769C24.6891 18.5222 26.699 18.5244 25.4943 18.6013C29.1416 18.602 31.0227 18.4339 34.6429 18.4787C34.9424 18.4992 33.0064 18.4802 33.1351 18.5348C35.5012 18.4692 37.4403 18.6042 41.1117 18.5604C40.4939 18.5634 40.3139 18.5971 40.228 18.6141C40.1635 18.5869 41.732 18.5578 42.6819 18.5315C43.2155 18.5456 41.9711 18.5511 42.2705 18.572C49.3627 18.6516 54.7659 18.4287 61.8197 18.4361C60.8124 18.4351 60.1186 18.4616 59.6738 18.494C59.229 18.5264 59.0333 18.5646 59.0226 18.5869L60.996 18.5889C61.7564 18.5347 63.2382 18.5348 64.4774 18.4944C64.6294 18.5147 65.2322 18.5367 64.6173 18.5622C66.5664 18.6171 68.0887 18.5676 69.7208 18.5115C70.5368 18.4834 71.3804 18.4535 72.3185 18.4344C72.8139 18.4241 73.3094 18.4177 73.805 18.4151L74.1903 18.4131C74.2786 18.4087 74.3645 18.383 74.4406 18.338C74.5223 18.2896 74.59 18.2209 74.6372 18.1385C74.6844 18.0561 74.7093 17.9629 74.7097 17.868L74.7098 17.9217C74.7098 17.9422 74.7066 17.9883 74.6949 18.0373C74.672 18.1364 74.6008 18.2856 74.4391 18.3857C74.3564 18.4346 74.2662 18.4681 74.1416 18.4715L73.653 18.49L72.5909 18.5303L69.6985 18.6396L71.1298 18.7159L68.5862 18.8155C70.1051 18.8755 71.4264 18.7367 71.6093 18.819C71.2883 18.8422 70.5148 18.8348 70.4906 18.8792C71.9489 18.9113 72.0638 18.8499 73.1602 18.834C70.2714 19.0013 64.6077 18.9986 61.5596 19.0397C61.08 19.0528 61.9701 18.9994 62.0549 18.9823C60.8113 18.9878 60.0646 18.9358 58.4992 18.9648C57.527 19.0355 59.2409 19.0169 60.0126 19.0243C59.9062 19.0858 59.5181 19.0821 58.6587 19.0913C58.4721 19.0093 53.9413 19.0623 52.8338 18.9621C48.2422 18.988 53.5681 19.1745 49.0857 19.1388L47.7467 19.045C45.1443 19.1175 41.7789 19.1817 38.8342 19.1617L39.4545 19.1587C39.8679 19.1185 39.1851 19.0938 38.8828 19.0733C36.6574 19.0332 34.6579 19.1471 33.3096 19.0532C30.7717 19.153 26.5403 19.2267 23.6384 19.2783C22.8557 19.1546 27.4238 19.1733 28.6313 19.096L25.9898 19.0965C27.6227 19.0948 28.2675 19.0478 29.2462 18.9774C26.9313 18.9544 26.1699 19.0628 23.9754 19.094C24.1462 19.0604 23.8531 19.0397 22.8408 19.0387L22.5534 19.1209C22.5347 19.1142 22.4228 19.1079 22.1101 19.1027L21.9446 19.1056C21.8423 19.1073 21.6962 19.1123 21.5212 19.1234C20.4718 19.1923 19.443 19.4479 18.4835 19.8784C18.8532 19.7387 19.0583 19.6989 19.2802 19.6488L20.2073 19.4445C19.8648 19.4785 20.6496 19.2505 21.6094 19.2136C21.1928 19.2662 21.4266 19.2569 21.76 19.2561L22.0224 19.2605L22.2849 19.269C22.4433 19.2752 22.5562 19.283 22.5508 19.294C22.3017 19.2946 22.0276 19.2917 21.7871 19.2966C21.5392 19.3033 21.2877 19.3201 21.0368 19.348C20.5347 19.4024 20.0357 19.5072 19.5684 19.6446C18.6311 19.9189 17.8361 20.3457 17.322 20.6899L17.1323 20.769L16.9439 20.853C16.1931 21.3675 15.5208 22.0358 15.005 22.7253C14.4862 23.4147 14.1207 24.1181 13.8771 24.6833C13.8773 24.6833 13.9046 24.5896 13.9354 24.4967C13.9548 24.4343 13.9756 24.3724 13.9977 24.3109C13.521 25.2984 13.2578 26.3736 13.1874 27.4278C13.1142 28.4843 13.2286 29.5154 13.46 30.4648C13.7674 31.3984 14.2826 32.3906 14.9429 33.2106C15.5958 34.0368 16.3758 34.6844 17.0411 35.0935C17.2261 35.1933 17.6025 35.4473 18.1326 35.7211C18.6614 35.9953 19.3494 36.2819 20.1121 36.4636C20.4994 36.5571 20.8929 36.6226 21.2896 36.6595C21.4891 36.6771 21.6885 36.6899 21.8862 36.6926C22.0819 36.6968 22.3044 36.6954 22.5067 36.6959C23.3312 36.6958 24.0898 36.6837 24.6714 36.6494C24.8283 36.66 23.0731 36.723 22.2792 36.7598C23.8272 36.7749 25.0578 36.6535 25.543 36.7562C22.0693 36.7216 25.7296 36.8382 24.165 36.8674C25.7913 36.8656 27.5063 36.847 28.3041 36.8103C25.6719 36.8112 29.2389 36.6682 26.5742 36.7131C28.639 36.6266 31.4567 36.5921 33.9173 36.6256C33.8929 36.6699 34.1963 36.6906 35.1134 36.7089L35.8533 36.6445C37.0046 36.6561 33.627 36.7206 35.9448 36.7435C38.3297 36.6335 43.1265 36.806 44.1706 36.6026C45.9882 36.6828 40.7118 36.6839 43.4512 36.7823C41.8575 36.8559 39.6591 36.7717 39.1339 36.8732C40.6958 36.8443 39.704 36.959 40.7118 36.96L42.4538 36.8973L42.0683 36.8935C42.7993 36.8695 43.6368 36.8545 44.5405 36.8449L45.9403 36.8345L46.6708 36.8325C46.9313 36.8333 47.1916 36.8441 47.4512 36.8649C48.5122 36.9511 49.5528 37.2049 50.5344 37.6168C51.5135 38.0256 52.4064 38.5871 53.1613 39.2183C54.4636 40.2609 55.3671 41.407 56.0441 42.762C56.3757 43.4433 56.6473 44.1838 56.8223 45.0148C56.9144 45.448 56.9763 45.887 57.0074 46.3288C57.0254 46.5584 57.0315 46.7986 57.0331 47.0368L57.033 47.7296C56.973 46.61 56.9752 50.8796 56.8652 48.4919C56.8418 49.2938 56.8387 50.0962 56.8558 50.8982C56.8704 51.555 56.8971 51.9969 56.9193 52.0142C56.9345 50.4701 56.9335 51.4713 56.9554 50.1704C57.0091 51.0485 57.0068 53.0721 56.9717 53.9037C56.9755 53.5184 56.9653 53.6648 56.9483 53.5798C56.9122 55.4236 57.0017 54.4635 57.0242 55.7957C56.949 56.2184 57.0041 58.7376 56.9651 59.9544L57.0724 61.7188C57.0372 61.234 57.0306 61.6568 57.0249 62.2353L57.0204 62.6868L57.0174 62.8358L57.0135 62.9332C57.0074 63.0585 56.998 63.1646 56.9819 63.209C57.0132 63.5706 57.0593 63.8128 57.0845 64.1106C57.2514 63.9207 57.4266 63.7382 57.6096 63.5637C57.4971 63.7023 57.6141 63.604 57.7835 63.4598C57.8674 63.388 57.9639 63.3059 58.0455 63.2412L58.0754 63.2181L58.1275 63.1729L58.2245 63.0907C58.2803 63.0452 58.3168 63.0202 58.3262 63.0237C60.7075 60.739 62.0515 59.022 64.3336 56.8848C64.2768 56.9652 63.8641 57.4445 64.5227 56.8112C65.0172 56.2885 65.9138 55.4036 66.4527 54.8539L66.437 54.8724L66.4639 54.8426C66.7278 54.5732 66.889 54.3993 66.8833 54.3805C67.7653 53.3994 68.195 52.8683 69.9866 50.9929C69.7941 51.0695 68.2686 52.6399 67.617 53.3287L67.095 53.9653C66.454 54.4313 65.4569 55.6339 65.0058 56.0261C65.5043 55.425 66.5519 54.3387 67.7044 53.1574L69.4563 51.3628L69.8799 50.9261L69.9558 50.851L70.038 50.7781L70.1067 50.7234C70.1975 50.6543 70.2943 50.5932 70.3957 50.5409C70.5959 50.4377 70.8125 50.3702 71.0359 50.3414C71.3038 50.3065 71.5761 50.3273 71.8356 50.4026C72.0951 50.4778 72.3362 50.6059 72.5439 50.7788C72.584 50.8115 72.6217 50.8463 72.6588 50.8816L72.7043 50.9271L72.7547 50.9815C72.8027 51.0349 72.8289 51.0695 72.861 51.1109C72.8911 51.1517 72.9206 51.193 72.9475 51.2358C73.0016 51.3202 73.0491 51.4085 73.0896 51.5002C72.9158 51.0495 72.5279 50.5915 71.9313 50.3711C71.6217 50.2579 71.2891 50.2224 70.9626 50.2678C70.6042 50.3177 70.2656 50.4626 69.982 50.6874C69.7857 50.8534 69.7868 50.866 69.717 50.9281L69.5423 51.0944L69.1795 51.4424L68.4087 52.1909C67.3469 53.2286 66.1664 54.4077 65.0718 55.5121L66.0751 54.5782L64.9257 55.73L66.1009 54.6778C65.0002 55.757 64.0739 56.715 63.0854 57.6966C64.2375 56.5421 64.7668 56.1728 64.1016 56.8126C62.7595 58.0409 62.7995 58.1889 61.8135 59.1678C62.3656 58.6261 63.0778 57.9159 62.6525 58.4078C60.646 60.2752 60.1681 60.8438 58.3322 62.5311C58.411 62.5007 58.3134 62.6236 58.1197 62.8304L57.8733 63.0894L57.75 63.215C57.5747 63.3909 57.3951 63.5666 57.3084 63.7324L57.571 63.486C57.423 63.6603 57.275 63.8345 57.1457 63.964C57.1306 63.9052 57.1154 63.838 57.1002 63.7619C57.128 63.4912 57.149 63.4166 57.1662 63.4018C57.1833 63.3894 57.1964 63.4413 57.2085 63.4762C57.2206 63.512 57.2318 63.5311 57.2448 63.4732C57.2577 63.4169 57.2727 63.28 57.2923 63.046C57.294 62.9579 57.2935 62.8698 57.2906 62.7817L57.2777 61.9981C57.2659 61.5199 57.249 61.1544 57.2313 60.8101C57.1959 60.121 57.1573 59.5174 57.1519 58.2683C57.1924 58.6797 57.23 59.3808 57.2572 60.2309C57.2708 60.6559 57.2817 61.1181 57.2891 61.6L57.2999 62.8495L57.3059 62.802C57.3096 62.822 57.3145 62.6209 57.3194 62.4773L57.3388 61.8669C57.3491 62.0078 57.3566 62.2504 57.362 62.5583L57.3657 62.7775L57.3687 62.8292L57.3728 62.9396C57.3768 63.0914 57.3751 63.2654 57.3728 63.4139L57.4527 63.3368L57.3435 63.4846C57.3281 63.4614 57.3209 63.485 57.3168 63.5491C57.4007 63.4792 57.6467 63.2224 57.7846 63.1482C57.785 63.0922 57.7242 63.1299 57.7028 63.1305C57.6775 63.1352 57.6985 63.0964 57.7903 62.96C57.6288 63.1235 57.5676 63.191 57.4072 63.3308C57.4104 63.3089 57.4146 63.2466 57.42 63.1772C57.4178 63.2251 57.4168 63.2689 57.4171 63.3069C57.5241 63.1986 57.6105 63.0875 57.6582 63.0054C57.6787 62.9715 57.6953 62.9353 57.7075 62.8976C57.7118 62.8843 57.7148 62.8707 57.7166 62.8569L57.7171 62.8524L57.7173 62.8502L57.7297 62.8358L57.7841 62.7733L57.8926 62.649C58.4701 61.9873 59.0536 61.3313 60.3757 60.0528C59.1235 61.3551 60.901 59.6873 61.0815 59.5604C61.676 58.9527 62.882 57.7203 63.3694 57.2049L62.8355 57.579C64.4154 55.93 65.1455 55.5387 66.9262 53.5929C67.1203 53.3029 65.271 55.2155 65.5969 54.8712C66.8464 53.5713 67.7329 52.724 68.5976 51.9262L69.2473 51.3309L69.5791 51.0284L69.7484 50.8737L69.7912 50.8347L69.8349 50.7936L69.8569 50.7746L69.9059 50.7316L69.9756 50.674C70.0136 50.6445 70.0525 50.6164 70.0924 50.5897C70.7305 50.1501 71.6506 50.1042 72.3589 50.5787C72.4463 50.6372 72.5299 50.7019 72.6074 50.7734L72.6643 50.828L72.7124 50.8765L72.7234 50.889L72.7567 50.9266L72.8235 51.0055C73.0349 51.2712 73.1751 51.5864 73.2309 51.9213C73.2866 52.2563 73.2561 52.5999 73.1422 52.9197C73.1145 53.0232 73.095 53.0971 73.0631 53.1873C73.0188 53.3128 72.9589 53.4322 72.8847 53.5427C72.859 53.5822 72.8284 53.6232 72.7935 53.6678L72.7365 53.7359L72.7107 53.77C72.6767 53.8148 72.6359 53.8667 72.586 53.9277C72.4488 54.0937 72.3078 54.2565 72.1631 54.416C72.3638 54.1192 71.7534 54.6804 72.6089 53.7545C71.8319 54.4911 70.9705 55.423 70.3215 56.1093C71.9251 54.5619 69.7459 56.823 69.4843 57.1419C68.6601 57.95 69.6852 56.8451 70.1733 56.3293C69.5053 56.9715 68.6561 57.6793 68.3559 58.1234C68.3176 58.111 68.7424 57.6198 69.3266 56.9783C69.911 56.337 70.6551 55.5451 71.2559 54.9311L70.429 55.7418C70.9673 55.1517 71.08 55.0534 71.9009 54.2485C71.0661 55.005 71.1012 54.8831 71.2507 54.6617C71.3622 54.565 71.2047 54.7319 71.3115 54.6394C71.9788 53.9979 72.4671 53.4817 72.2884 53.6069C72.8089 52.9505 71.338 54.4721 70.8608 54.8818L69.8755 55.8941L66.6932 59.5127C65.2658 60.991 64.5603 61.5919 63.4361 62.6503L63.1949 63.0081C61.9247 64.2662 60.7135 65.4406 61.4497 64.5566C61.5147 64.5306 61.677 64.3589 61.9541 64.0873C61.9825 64.0431 62.0403 63.9741 62.1155 63.8898L62.1681 63.8169L59.9246 66.1269C62.1386 63.7438 59.9335 65.9064 60.2146 65.4181L57.9266 67.7735C59.3667 66.3989 58.003 67.7982 57.5174 68.3117C57.4605 68.3349 57.2792 68.5022 57.0301 68.7479L56.6127 69.1672L56.5336 69.2466C56.5037 69.2765 56.4726 69.3054 56.44 69.3331C56.375 69.3887 56.3055 69.4413 56.2292 69.4846L56.172 69.5174L56.1448 69.5328L56.1473 69.5315L56.1478 69.5312L56.0547 69.5768L56.0499 69.5789L56.0305 69.5864L56.0062 69.5955L55.9486 69.6158L55.8851 69.6366C55.7863 69.6649 55.7635 69.6721 55.6503 69.6979L55.5858 69.7127L55.5034 69.7124C55.402 69.7122 55.3435 69.7105 55.2413 69.7027C55.214 69.7 55.1883 69.6981 55.1396 69.6904L55.0758 69.678L55.0076 69.6603L54.8862 69.6225L54.867 69.6166L54.8349 69.6032C54.7788 69.5797 54.7436 69.5639 54.6923 69.5387L54.6488 69.5164L54.5989 69.488L54.5492 69.4586L54.5 69.429L54.481 69.4173L54.4738 69.4127L54.4703 69.4104L54.4686 69.4092L54.3359 69.2983L54.3314 69.294L54.3132 69.276L54.2407 69.2048L53.9598 68.9298C53.7985 68.7691 53.6373 68.6084 53.4761 68.4476L53.5483 68.4958C52.8154 67.7226 51.4892 66.4076 50.5338 65.4838C50.5568 65.5456 49.2548 64.434 48.6181 63.9119C50.2072 65.5447 49.2271 64.6112 49.3197 64.776C49.1562 64.606 48.8573 64.3055 48.8148 64.2779C48.5673 64.0636 49.1054 64.6125 49.1312 64.6769C50.8714 66.3628 52.6411 68.1172 53.4228 68.7367C52.9345 68.1748 52.4906 67.8746 51.9272 67.2622C52.2722 67.5656 52.6434 67.9141 53.0499 68.3087L53.6875 68.9352L54.0283 69.2748L54.116 69.3623L54.1602 69.4072L54.1824 69.4297L54.1879 69.4354L54.1893 69.4368L54.1899 69.4376C54.246 69.4846 54.3021 69.5315 54.3584 69.5782L54.3687 69.5849L54.3952 69.6017L54.4562 69.6393L54.4876 69.6583L54.5527 69.6961C54.6421 69.7431 54.6765 69.7586 54.7557 69.793L54.7872 69.8068L54.8208 69.8175L54.9451 69.8577L55.0204 69.878L55.0394 69.8824L55.0924 69.893C55.1566 69.904 55.1851 69.9064 55.2166 69.9099C55.3311 69.9198 55.3887 69.9225 55.5036 69.924L55.6037 69.9254L55.6919 69.9056L55.7883 69.8836L55.8582 69.8661L55.943 69.8427L56.0331 69.814L56.0796 69.7981L56.1263 69.7806L56.1343 69.7774L56.1384 69.7757L56.2565 69.7173L56.2561 69.7174L56.2554 69.7179L56.2509 69.7206L56.262 69.7144L56.35 69.6649C56.4088 69.6309 56.4651 69.5928 56.5185 69.5508C56.5729 69.5088 56.625 69.4638 56.6744 69.4159L56.7933 69.2985L56.9702 69.1221L57.486 68.7037L58.8932 67.2438C58.3206 67.8679 58.7318 67.5587 57.2372 69.0728C57.4752 68.9266 58.7185 67.5706 59.6551 66.6649L60.0614 66.1293C59.916 66.3466 61.8943 64.3824 60.5428 65.8321L58.3169 68.1639L58.9945 67.5747L57.0803 69.5135L57.5014 69.0256L56.9114 69.6274C56.7642 69.775 56.5956 69.8994 56.4112 69.9964L56.4164 69.9932L56.2605 70.0703L56.2588 70.071L56.2554 70.0723L56.2489 70.075L56.2229 70.0853L56.1908 70.097L56.1525 70.1105L56.1034 70.1269L56.0265 70.1511L55.9659 70.1681L55.876 70.1911L55.7544 70.2186L55.6356 70.2457L55.5033 70.2435C55.3905 70.243 55.2778 70.2368 55.1657 70.225L55.1013 70.217C55.0686 70.2118 55.0572 70.2116 54.973 70.1936L54.9115 70.1783L54.8408 70.1582L54.7195 70.1175L54.6708 70.1012L54.6327 70.0848C54.5766 70.0603 54.545 70.0451 54.5042 70.0253C54.4641 70.005 54.4256 69.9872 54.3393 69.9358L54.2706 69.8921L54.2386 69.8716L54.2188 69.8589L54.196 69.8439L54.1898 69.8399L54.1866 69.8379L53.9642 69.6521L53.9615 69.6491L53.8108 69.4858C53.7404 69.4089 53.6717 69.3303 53.6051 69.2501L53.3363 68.9149C53.1297 68.6685 52.7462 68.2653 51.4579 67.0388C50.4043 66.1415 49.3489 65.1033 47.4616 63.1779C48.8589 64.5401 47.6593 63.2652 48.2245 63.7398C46.8502 62.3001 46.3097 61.8886 45.5488 61.1887C45.2322 60.7894 45.0115 60.5008 46.2625 61.7641C46.5077 61.8362 44.5934 60.1249 44.5689 59.922C42.4847 57.8404 41.5778 57.0776 40.5976 56.2129C40.0244 55.7097 39.4636 55.1925 38.9159 54.6617L38.3681 54.1252L38.0651 53.8232L38.0021 53.7584L37.9655 53.7186L37.9039 53.6472C37.8397 53.5679 37.7843 53.4915 37.7322 53.4056C37.5148 53.0514 37.405 52.6417 37.4161 52.2262C37.4296 51.6927 37.6415 51.1835 38.0102 50.7978L38.0404 50.7665L38.0832 50.7249L38.1099 50.7002L38.1961 50.6251C38.5116 50.3646 38.8952 50.2002 39.3014 50.1514C39.7076 50.1027 40.1192 50.1717 40.4874 50.3501C40.6679 50.438 40.8351 50.5509 40.9841 50.6856L41.057 50.7548L41.0956 50.7942L41.0862 50.7879C41.0771 50.7811 41.0793 50.7853 41.0506 50.761C41.0042 50.7222 40.9401 50.6728 40.8727 50.6278C40.7385 50.5366 40.5917 50.4697 40.5917 50.4697C40.7385 50.5514 40.8748 50.6508 40.9973 50.7657L41.1672 50.9301L41.4498 51.2059L41.9939 51.7389L43.0098 52.7417L44.8578 54.5866C46.0478 55.7799 47.2073 56.9469 48.6549 58.3661L50.8203 60.7146C50.3016 60.224 48.8761 58.9352 49.4653 59.6126C48.46 58.4222 47.2626 57.2894 46.1293 56.0567C45.9845 55.9599 46.4488 56.4592 46.6438 56.6836C45.9307 55.9688 45.614 55.5691 44.6552 54.6424C44.6816 54.7071 45.6872 55.7587 44.9008 54.9946L43.6751 53.6549C42.8037 52.8105 42.5583 52.6333 42.282 52.4119C42.1024 52.2682 41.9291 52.1168 41.7626 51.9581C41.6449 51.8472 41.5046 51.7113 41.3316 51.5395L41.0464 51.2533L40.8829 51.0872L40.8396 51.0432L40.7654 50.9703C40.6997 50.9101 40.6281 50.8525 40.5502 50.7998C40.6105 50.8351 40.6738 50.8755 40.7361 50.9239L40.8823 51.0425L41.0937 51.2116C41.2626 51.3489 41.4298 51.4882 41.5951 51.6297C41.9946 51.9706 42.3834 52.3237 42.7612 52.6884C41.8513 51.7564 44.0198 53.8855 43.2097 53.0146C42.5085 52.3888 42.0129 51.9008 41.466 51.3546L41.0422 50.9311L40.9868 50.8757L40.9306 50.8218C40.6164 50.5275 40.2146 50.3439 39.7864 50.2989C39.3512 50.2528 38.913 50.3524 38.5405 50.5823C38.4359 50.647 38.3376 50.7212 38.2467 50.804L38.2134 50.8354L38.1956 50.8529L38.159 50.8895L38.1388 50.911L38.0989 50.9545C38.0732 50.9847 38.0468 51.0144 38.0226 51.0465C37.8693 51.2423 37.7548 51.4656 37.6852 51.7043C37.5863 52.0426 37.5804 52.4013 37.6682 52.7427C37.6247 52.5774 37.6065 52.438 37.6002 52.3023L37.5976 52.2159C37.5971 52.1998 37.5973 52.1837 37.5982 52.1676L37.6012 52.101C37.6167 51.8351 37.6877 51.5754 37.8096 51.3386C37.8698 51.2216 37.9417 51.111 38.0243 51.0086L38.0975 50.9231L38.1373 50.8802L38.1872 50.8304L38.2059 50.812L38.2603 50.7627C38.3058 50.7222 38.3379 50.6977 38.3743 50.6696L38.2952 50.7311L38.2435 50.7753L38.1993 50.8149L38.1766 50.8361L38.1 50.914C37.8751 51.1544 37.7129 51.4465 37.6279 51.7646C37.5207 52.1543 37.5264 52.653 37.7409 53.1211C37.795 53.2391 37.8601 53.3516 37.9356 53.4572L37.9951 53.536C38.0149 53.5617 38.0473 53.5993 38.0742 53.6295L38.1143 53.6736L38.1649 53.7258L38.4002 53.9672L39.6625 55.2614C39.0741 54.585 41.8227 57.325 41.6507 57.022C40.3019 55.646 39.8177 55.168 39.2874 54.6412L38.3431 53.6961C38.2872 53.6356 38.2677 53.6302 38.1182 53.4554C37.88 53.161 37.7372 52.801 37.7088 52.4234L37.7045 52.3471L37.7036 52.2478L37.7048 52.2127L37.7105 52.118C37.7407 51.7769 37.864 51.4507 38.067 51.1749C38.1031 51.1263 38.1414 51.0794 38.1818 51.0344L38.2448 50.9679L38.2987 50.9158C38.3957 50.8254 38.5022 50.7457 38.6164 50.6782C38.859 50.5346 39.1312 50.4482 39.4122 50.4255C39.6932 50.4027 39.9757 50.4442 40.2383 50.5468C39.9064 50.4218 39.5453 50.3959 39.1989 50.4722C38.8406 50.5513 38.5147 50.7368 38.2638 51.0045C37.9803 51.3067 37.8097 51.6974 37.7811 52.1108L37.7772 52.1956C37.7762 52.226 37.7774 52.222 37.7774 52.2369C37.7779 52.5904 37.8843 52.9356 38.0829 53.2279C38.1324 53.3008 38.1873 53.3698 38.2472 53.4344C38.2922 53.4836 38.2927 53.4804 38.3105 53.4979L38.3327 53.52L38.3382 53.5249L38.3491 53.5346L38.3711 53.554L38.4581 53.6302L38.7889 53.9168C38.9676 54.0706 39.149 54.2213 39.3329 54.3688C39.3575 54.3983 39.4001 54.4452 39.4947 54.542C40.034 54.952 39.5678 54.4507 39.6904 54.3469C39.3405 54.0345 38.9967 53.7153 38.659 53.3897L38.5292 53.2625L38.5144 53.2472L38.486 53.2157C38.4373 53.161 38.3932 53.1024 38.3542 53.0405C38.2528 52.8817 38.1839 52.7043 38.1514 52.5188C38.1189 52.333 38.1233 52.1426 38.1644 51.9586C38.2055 51.7745 38.2824 51.6003 38.3908 51.446C38.502 51.2878 38.6438 51.1536 38.8078 51.0513C38.9719 50.949 39.1548 50.8808 39.3457 50.8505C39.5471 50.8187 39.753 50.8298 39.9499 50.8831C40.1467 50.9363 40.3301 51.0306 40.4881 51.1596L41.6899 52.3164C41.8782 52.4427 41.6551 52.1801 41.279 51.7841C41.1845 51.6856 41.0806 51.5781 40.9723 51.4658L40.805 51.2953L40.7192 51.2084L40.6735 51.1628C40.4477 50.9382 40.1582 50.7887 39.8443 50.7346C39.5305 50.6805 39.2077 50.7245 38.9197 50.8606C39.1025 50.7732 39.3005 50.722 39.5027 50.7097C39.8937 50.6866 40.2792 50.8102 40.5838 51.0564C40.6071 51.0759 40.631 51.0951 40.6532 51.1159L40.7076 51.1666L41.4653 51.8835L41.1467 51.6217L44.8685 55.3855C44.156 54.6795 43.8792 54.4746 43.4821 54.1314C43.9627 54.617 44.4246 55.1115 44.9152 55.6383C44.8675 55.4723 44.9765 55.4979 45.4465 55.97C47.8404 58.3925 49.126 59.7843 49.947 60.7405L50.2316 61.0168C50.0601 60.7845 50.5148 61.185 51.1134 61.7287L52.0591 62.5912L52.4998 62.9886L52.6923 63.1588C52.7073 63.1719 52.7221 63.1848 52.7367 63.1972L52.7582 63.2159L52.7688 63.2236L52.8076 63.2508C52.7686 63.2746 52.9109 63.4357 53.1107 63.6465C53.3108 63.8577 53.5564 64.1068 53.7537 64.336C53.811 64.3214 53.7282 64.153 53.6125 63.9548C53.4903 63.7497 53.3622 63.5483 53.2285 63.3506C53.1133 63.2683 53.0222 63.2019 52.9577 63.1589C52.9313 63.1408 52.9042 63.1239 52.8764 63.108L52.7535 63.0143C52.6127 62.9135 52.5758 62.9238 52.1446 62.5856L49.4703 60.0357L50.1117 60.5623C48.8334 59.2333 47.5053 58.0567 47.6758 58.0777C48.4143 58.7168 49.5214 59.8845 50.2549 60.5181L49.42 59.6284C51.0147 61.0764 50.1291 60.4788 52.0223 62.27C51.7153 61.8995 51.7581 61.94 51.9816 62.1666L52.4315 62.6179L52.7184 62.8952L52.8704 63.0377L52.9063 63.0704L52.9193 63.0801L52.9451 63.0986L52.9292 63.0749C52.9208 63.0642 52.9258 63.067 52.8919 63.0311L52.7174 62.8465L52.2776 62.3958L51.2564 61.3677C50.5974 60.7017 50.0947 60.1761 50.4254 60.399C50.928 60.8544 51.702 61.6917 52.5223 62.5603C52.625 62.6688 52.7284 62.7778 52.8317 62.8866L52.9093 62.9683L52.9481 63.0089C52.9636 63.0252 52.9577 63.0197 52.9636 63.0264L53.0014 63.0709C53.0528 63.1304 53.1075 63.1907 53.1615 63.2449C53.269 63.3534 53.3729 63.4388 53.4196 63.4319L53.4164 63.4532L53.5396 63.5805C53.5397 63.3195 53.5209 63.1079 53.4957 62.9683C53.4858 62.9103 53.4722 62.853 53.4551 62.7968L53.4497 62.7803C53.448 62.7711 53.4462 62.7823 53.4445 62.7424L53.4341 62.5714L53.4144 62.2356C53.4638 61.1104 53.3943 59.5568 53.3887 58.3372L53.4331 58.3671L53.4146 56.6466C53.4954 57.466 53.4124 58.6631 53.4242 60.141L53.5066 59.9571C53.4576 60.809 53.4705 61.519 53.5043 62.1813L53.533 62.6705L53.5369 62.7306C53.5382 62.7499 53.5396 62.7763 53.5409 62.7748L53.549 62.805L53.5658 62.8697C53.5881 62.9595 53.6108 63.0662 53.6286 63.1856C53.6197 63.1028 53.6133 63.0195 53.6086 62.935L53.6029 62.8075L53.6007 62.6779L53.599 62.4518L53.5916 60.6258C53.5854 59.4522 53.5681 58.4625 53.4875 58.2366L53.5706 57.047L53.5406 56.4778C53.6031 55.5914 53.701 56.4964 53.7196 58.2151C53.6988 58.5136 53.6884 58.6631 53.6712 58.5725C53.708 59.3702 53.772 60.1027 53.753 62.0332L53.7094 61.0032L53.7112 62.5658L53.7136 62.8317L53.7166 62.9669L53.7252 63.2305C53.7386 63.5757 53.7604 63.9044 53.7918 64.1903C53.7613 64.1706 53.7364 64.1572 53.7158 64.1489L53.8196 64.2571L53.8389 63.1465L53.8501 61.108L53.8542 56.2747C53.6679 55.3136 53.5634 54.1734 53.3902 53.6836C53.3743 52.5905 53.3603 51.3018 53.3583 50.0493L53.3654 48.2262L53.3899 46.6854L53.4295 46.8334C53.4274 46.1204 53.2941 45.4139 53.0362 44.7492C52.9125 44.3498 52.9812 44.4744 53.0644 44.6321C53.1432 44.7907 53.226 44.985 53.1421 44.7008C53.1421 44.7008 53.0849 44.5406 52.9802 44.3085C52.852 44.0251 52.7051 43.7506 52.5403 43.4868C52.3759 43.2235 52.1938 42.9717 51.9953 42.7331C51.8332 42.5381 51.7154 42.4166 51.7154 42.4166C51.7991 42.4509 52.2333 42.8948 52.6092 43.524C52.8036 43.8471 52.9697 44.1864 53.1055 44.5381C53.2251 44.8463 53.3219 45.1628 53.3953 45.4851C53.3482 45.2844 53.2157 44.8913 53.2429 45.022C53.3267 45.3263 53.4154 45.6996 53.4744 46.1025C53.5041 46.3081 53.5254 46.5148 53.5382 46.7222C53.5454 46.8292 53.5478 46.9276 53.551 47.0415L53.557 47.3976C53.5721 48.337 53.5772 49.1738 53.5206 49.4921C53.5402 50.2013 53.4369 48.0515 53.4311 50.4523C53.3884 52.0599 53.4902 52.5834 53.5241 52.7514C53.5686 52.7774 53.5849 50.2283 53.6385 51.1129C53.633 49.8618 53.5757 49.3635 53.6185 47.7634C53.6239 49.0034 53.7139 50.6876 53.645 51.3482C53.7279 53.8004 53.9361 53.4485 53.9476 52.2923C53.8822 52.5676 53.8671 47.8193 53.7821 51.0348C53.7401 50.3125 53.719 49.2918 53.7017 48.2154L53.6892 47.4014L53.6828 46.995C53.6802 46.8743 53.6748 46.7546 53.667 46.636C53.6345 46.1617 53.5512 45.708 53.4374 45.3072L53.4719 45.3769C53.4719 45.3769 53.3519 44.871 53.149 44.3936C52.9545 43.9131 52.6849 43.4698 52.6849 43.4698C52.7689 43.5896 52.8883 43.7861 52.9849 43.9574C53.0815 44.1287 53.1591 44.2728 53.1831 44.2742C53.1831 44.2742 53.1082 44.1089 52.9785 43.8704C52.6616 43.29 52.2648 42.757 51.7997 42.2868C51.6106 42.0958 51.4749 41.9792 51.4751 41.9792C51.7761 42.2465 51.8721 42.3494 51.861 42.319C51.8488 42.2903 51.7203 42.1376 51.5276 41.9438C51.3356 41.7493 51.0739 41.5202 50.8149 41.3235C50.5981 41.1605 50.3747 41.0065 50.1451 40.8621C49.8458 40.75 48.8166 40.3494 49.7619 40.8313C50.2759 41.1318 50.4145 41.2346 50.5574 41.3089C50.6952 41.39 50.8374 41.4466 51.2505 41.803C51.2505 41.803 50.9451 41.564 50.6169 41.3648C50.2895 41.1631 49.9439 41.0032 49.9439 41.003L49.8345 40.9314C49.8345 40.9314 49.6227 40.8418 49.406 40.7697C49.19 40.6951 48.9705 40.6385 48.9705 40.6385C48.4908 40.464 48.2963 40.4143 48.2496 40.3819C48.2019 40.3523 48.2991 40.3508 48.3782 40.3525C48.4572 40.3535 48.5188 40.3526 48.3975 40.3132C48.2761 40.2786 47.9717 40.1847 47.3061 40.1329L47.4709 40.2115L47.6321 40.2942C47.4416 40.2644 47.2499 40.2424 47.0576 40.2282C46.9592 40.2207 46.8606 40.2152 46.7619 40.2119L46.436 40.2062L45 40.1873L42.0953 40.142C40.1921 40.1131 38.4195 40.0933 37.1613 40.1208C37.8557 40.053 38.1615 39.9436 37.207 39.879C38.2922 39.8996 40.4726 39.8952 42.029 39.884C42.3285 39.905 40.0846 40.0253 38.3938 39.9996C39.213 40.1951 42.6466 39.8815 42.8453 40.0797C44.9994 40.1143 45.8026 40.0666 46.5247 40.0248L46.7723 40.0115C46.8535 40.0085 46.9347 40.0073 47.016 40.0078C47.1836 40.0081 47.3642 40.0189 47.5738 40.0434C47.9905 40.0971 48.5344 40.2003 49.2685 40.529C49.3059 40.4956 49.5224 40.5742 49.7468 40.6755C49.9721 40.7754 50.2019 40.9017 50.2957 40.9126C50.1078 40.7571 49.7695 40.5441 49.3163 40.3518C48.8643 40.158 48.2968 39.9905 47.6793 39.9052C47.364 39.8617 47.0462 39.8394 46.7279 39.8385L45.6692 39.8465C44.9619 39.8512 44.2791 39.8511 43.6858 39.8385C43.9181 39.8321 44.3858 39.8188 44.4771 39.802C42.7808 39.7762 42.0801 39.7958 40.8952 39.8286L41.0445 39.8391C38.9742 39.9257 39.7634 39.773 38.5448 39.7342C38.0727 39.7473 36.3784 39.7217 36.6508 39.7867L34.444 39.7028L34.5505 39.8015C33.3059 39.8072 33.0334 39.7421 31.9054 39.8022L31.8529 39.8905L34.9441 39.9213C33.3776 39.9502 34.5074 40.0059 32.7858 40.0246C34.7089 39.9278 31.4255 39.9755 31.236 39.8934L29.9698 39.9431L30.2937 39.9196C29.3 39.8741 29.1105 39.9525 27.9509 39.9409C29.3188 39.9901 30.2146 40.0525 31.9574 39.9896C30.6884 40.0394 28.1721 40.0945 27.5543 40.0975C26.222 40.1346 25.2918 40.0671 24.0451 40.0572C26.4375 40.0217 23.2073 39.7889 28.0013 39.8526C27.9127 39.8695 27.5244 39.8657 27.3744 39.8553C28.0135 39.9683 30.248 39.8482 31.2876 39.805C31.0198 39.7399 32.1067 39.7238 30.264 39.6878C30.8687 39.7295 28.7114 39.8329 26.9582 39.7795L27.2669 39.6403L24.7141 39.6238L24.9531 39.6173C24.4731 39.5724 23.7921 39.5768 23.0114 39.5857L22.4089 39.5926C22.202 39.5941 21.9965 39.5979 21.7674 39.5946C21.3097 39.5878 20.8531 39.5468 20.4015 39.472C20.0701 39.4394 19.5054 39.3499 18.8935 39.1839C18.2807 39.0215 17.6252 38.7779 17.0917 38.5337C16.5567 38.2917 16.1423 38.0552 15.969 37.9708C15.7982 37.8825 15.8573 37.9616 16.3236 38.2685C15.6126 37.8217 14.9689 37.3729 14.3467 36.8604C13.7274 36.3467 13.129 35.7672 12.5715 35.0362C12.5715 35.0362 12.8997 35.5064 13.2774 35.9392C13.6503 36.3761 14.0693 36.7717 14.0693 36.7717C13.6897 36.452 13.3318 36.1075 12.9978 35.7405C12.7658 35.4854 12.6229 35.3097 12.4902 35.1474C12.347 34.9714 12.2065 34.7932 12.0688 34.6128C11.8262 34.2958 11.5986 33.9676 11.3868 33.6293C11.3141 33.4137 11.1301 32.9593 11.3623 33.3425C10.9183 32.4505 10.5892 31.5059 10.383 30.5312C10.1652 29.5092 10.0857 28.4349 10.1383 27.416C10.1878 26.3954 10.3696 25.4311 10.6057 24.6093C10.8407 23.786 11.1254 23.1046 11.3473 22.6084C11.5954 22.1249 11.8837 21.6632 12.2093 21.2282C12.4865 20.859 12.7541 20.5489 13.0561 20.2285C13.3998 19.8651 13.7611 19.5187 14.1385 19.1904C14.5831 18.8061 15.1332 18.3622 15.9015 17.8784C16.2256 17.6753 16.082 17.724 16.1176 17.6737C16.1359 17.6491 16.1993 17.5991 16.3945 17.4887C16.5903 17.38 16.9172 17.2064 17.481 16.9838C17.5575 16.9558 17.0297 17.205 16.8043 17.3466C16.6904 17.4153 16.6477 17.4492 16.7826 17.3905C16.9187 17.3345 17.2287 17.177 17.8539 16.9368C18.7274 16.5503 19.8375 16.2839 21.0279 16.2063C21.3292 16.186 21.6312 16.1769 21.9332 16.1789L22.7951 16.1848C23.3704 16.1856 23.9514 16.1786 24.5272 16.1554C25.7429 16.194 27.8526 16.1794 27.4132 16.2642C25.4873 16.2449 22.762 16.2625 22.3468 16.3032C22.4778 16.2778 22.1412 16.2647 21.9349 16.2547C21.8289 16.2494 21.7612 16.2464 21.815 16.239C21.8418 16.2352 21.8993 16.2318 21.9976 16.2273L22.3961 16.2142L21.887 16.2049C21.7226 16.2041 21.5726 16.2059 21.4352 16.2113C21.1602 16.2209 20.9358 16.2402 20.7462 16.2604C20.3671 16.3024 20.1269 16.3494 19.8981 16.3974C19.6697 16.4475 19.4518 16.4989 19.1226 16.585C18.7942 16.6732 18.3516 16.7905 17.6939 17.0342C17.6105 17.0868 17.952 16.9694 18.3924 16.8439C18.8322 16.7151 19.3735 16.5908 19.6641 16.519C19.6732 16.5478 19.3405 16.6275 18.8871 16.7661C18.4329 16.9023 17.8612 17.1086 17.3792 17.3285C16.8962 17.5457 16.5028 17.7707 16.3656 17.8653C16.2295 17.9637 16.3394 17.9115 16.8992 17.6676C17.46 17.3934 18.0373 17.154 18.6276 16.9509C19.1339 16.777 19.5832 16.6497 20.0276 16.5511C20.4796 16.4494 20.9389 16.3834 21.4013 16.3538C21.5268 16.3462 21.6526 16.3415 21.7784 16.3396C21.9082 16.3381 22.0381 16.3388 22.1679 16.3418C22.4274 16.3469 22.7049 16.3564 23.0072 16.3717C22.7648 16.3894 22.4884 16.3988 22.1907 16.405L21.715 16.4159C21.5486 16.4221 21.3783 16.4315 21.2061 16.4455C20.5179 16.4996 19.7997 16.6321 19.1883 16.8503C19.1883 16.8503 19.6964 16.7319 20.2125 16.6657C20.7279 16.5943 21.2467 16.575 21.2467 16.5748C21.2467 16.5748 21.6211 16.5284 21.9987 16.5086L22.72 16.4668L22.6342 16.4839C26.1442 16.5899 25.8812 16.3647 29.0217 16.3066C27.2022 16.2261 29.4426 16.1058 28.0737 16.0566C30.1739 16.0418 31.7164 16.0573 31.7303 16.173C27.8012 16.2676 31.5074 16.2955 27.8749 16.411C28.4712 16.4525 27.0101 16.5805 29.1747 16.5933C31.6138 16.5106 28.445 16.4969 30.8776 16.4586C31.0212 16.469 31.1705 16.4794 31.0857 16.4964C32.2043 16.4362 32.3909 16.518 33.7448 16.4515L33.4238 16.4747C35.0931 16.5449 35.2498 16.3951 36.6868 16.4717C36.112 16.3857 37.6516 16.4011 38.5426 16.3475C37.0862 16.3151 36.2977 16.1917 33.4238 16.1986C33.0768 16.2666 33.2867 16.3042 32.1064 16.3371L33.9742 16.3289L32.8947 16.3712L31.1004 16.336C33.3753 16.2874 32.332 16.2147 33.2987 16.144C35.3805 16.1737 35.0165 16.1253 36.3256 16.1475C36.1941 16.2473 40.3394 16.318 42.7367 16.382L41.6244 16.3781C39.8834 16.4411 42.8225 16.4613 42.8868 16.4886L44.1558 16.4387C43.917 16.4456 43.5866 16.469 44.1278 16.4831C45.8456 16.4646 45.7456 16.3657 47.4606 16.3469C47.5894 16.4018 46.1394 16.4851 47.2058 16.514C47.5735 16.5619 48.7444 16.6894 51.0229 16.6408C51.1843 16.6198 51.7751 16.6081 52.4599 16.599C52.3648 16.602 52.2454 16.604 52.2024 16.6081L53.7158 16.6679C52.4263 16.7616 51.1079 16.6237 49.8118 16.7177L49.7016 16.8068C48.693 16.8071 47.3234 16.8456 46.6935 16.8918C48.2311 16.9069 48.5549 16.8835 50.2744 16.8651C50.5153 16.9213 49.3041 16.9631 49.1297 16.9692L49.3862 16.9185C47.3355 16.8447 46.3203 17.0038 43.7673 16.9873C43.382 16.9838 43.617 16.9771 43.703 16.9603C41.6363 17.0466 39.6087 16.9284 37.6 17.0421L38.2549 16.9952L31.5405 17.2055L31.5192 17.2403C31.8158 17.2611 30.8129 17.2599 30.2745 17.2458L30.2774 17.2453L26.5965 17.3559C26.9333 17.3772 27.3643 17.3952 27.859 17.4002C28.2779 17.3596 30.7336 17.3928 30.3968 17.3004C31.5315 17.3562 33.3593 17.2761 34.1924 17.3112C32.6745 17.2517 35.2496 17.2238 35.5155 17.1729C36.026 17.2314 37.7653 17.1686 37.5664 17.247C37.8659 17.2675 36.821 17.1949 36.1753 17.242C34.5853 17.3152 39.0864 17.3063 37.1055 17.3758C39.6247 17.3208 42.9446 17.3446 45.5431 17.2724L44.0885 17.2403C45.2436 17.2517 47.9774 17.2342 48.1817 17.2722L45.2221 17.2962C45.169 17.3847 47.8607 17.2957 47.983 17.3503L51.1722 17.2037L49.7754 17.1988C50.6552 17.1451 53.5757 17.2099 55.7405 17.2225C54.4985 17.3438 52.4748 17.2257 50.1972 17.2742C48.5428 17.3202 51.2189 17.3913 49.6533 17.4204C50.0592 17.4486 51.0808 17.4452 51.5847 17.4148L52.2024 17.4368C50.8057 17.547 47.6743 17.5225 45.5898 17.6172C45.7727 17.6055 45.9323 17.5929 45.99 17.5801C44.3851 17.5374 42.7551 17.5391 41.1903 17.5683C42.0181 17.6031 42.3455 17.5794 42.8185 17.5667C42.8772 17.5939 41.4003 17.6056 40.8413 17.6359C42.2967 17.6679 41.1127 17.7009 42.0337 17.719C41.0857 17.7452 40.3179 17.7377 39.1628 17.7261C38.5638 17.6844 39.6581 17.6686 39.536 17.6142C38.3463 17.6469 37.8024 17.5164 36.0612 17.5794C38.377 17.6024 35.451 17.6982 34.6532 17.7348L35.0415 17.7387C34.3071 17.8027 33.6838 17.8052 33.1764 17.7467C34.1244 17.7205 35.0415 17.7387 34.7719 17.6735C34.1457 17.6763 33.5217 17.679 32.8126 17.6987L33.4572 17.6516L30.3456 17.6653C29.8528 17.7227 29.0299 17.8037 28.5989 17.8883C27.8526 17.8362 26.813 17.8796 26.1049 17.8996L26.4343 17.8756C25.748 17.851 24.6414 17.849 23.674 17.8594C23.1905 17.8646 22.7416 17.873 22.3977 17.8833C22.2267 17.8885 22.0778 17.8939 21.9712 17.9001C21.8691 17.9063 21.7993 17.914 21.7698 17.9211C21.6569 17.9182 21.6715 17.9085 21.7718 17.8942C21.8415 17.885 21.9114 17.8776 21.9814 17.8722L22.3113 17.8495L23.9819 17.7455C24.4763 17.7109 24.7848 17.6792 24.5367 17.659C24.4126 17.649 24.1491 17.6417 23.7002 17.6385L22.8819 17.6369L22.3575 17.6385C22.1689 17.6399 21.964 17.6389 21.7639 17.6448C21.1411 17.6604 20.7366 17.7262 20.4586 17.7825C20.1808 17.8406 20.0286 17.8947 19.91 17.9426C19.675 18.0455 19.5662 18.1085 18.9101 18.3388C18.9101 18.3388 18.98 18.2992 18.8449 18.3311C18.3357 18.4935 18.0699 18.6245 17.8306 18.749C17.5927 18.877 17.3798 19.0009 17.0064 19.2265C17.3178 19.064 17.6346 18.9121 17.9562 18.771C18.2737 18.6319 18.5579 18.5237 18.6944 18.4643C18.5545 18.5473 18.0353 18.7315 17.4869 19.0051C16.9361 19.2729 16.3647 19.638 16.0558 19.9014C16.4564 19.5564 16.0234 19.8307 15.5988 20.1717C15.1735 20.511 14.771 20.9222 15.0482 20.6163C14.2475 21.315 13.5709 22.2056 13.1177 23.0646C12.6585 23.9233 12.4153 24.7381 12.3029 25.2774C12.0474 25.9459 11.9389 26.5743 11.8973 27.3119C11.863 28.0504 11.8831 28.9061 12.078 30.0503C12.0069 29.7012 11.8949 29.0606 11.888 28.5594C11.827 27.8974 11.8197 28.5011 11.8593 29.0166C11.8779 29.2739 11.9085 29.5076 11.9067 29.5512C11.9075 29.5944 11.8623 29.4498 11.7945 28.9381C11.8536 29.3754 11.8319 28.9659 11.7975 28.5164C11.7466 27.7279 11.7953 26.9805 11.738 27.1761C11.738 27.1761 11.6774 27.6547 11.6661 28.1391C11.65 28.623 11.6839 29.1078 11.6838 29.1078C11.6838 29.1078 11.6613 28.9398 11.6448 28.7712C11.6273 28.6025 11.6162 28.4331 11.6162 28.4331C11.6162 28.4331 11.6127 29.1731 11.7259 29.907C11.7754 30.2436 11.8413 30.5777 11.9233 30.9079C11.9911 31.1783 12.0457 31.3566 12.0457 31.3566C12.0871 31.4278 12.0179 31.157 11.9885 31.0173C12.2318 31.8683 12.5873 32.6832 13.0458 33.4404C13.5139 34.2133 14.0814 34.9216 14.7337 35.5469C16.0261 36.7964 17.6033 37.6288 19.0448 38.0533C19.1973 38.0353 19.7157 38.1579 20.4623 38.2473C20.8354 38.2918 21.2654 38.3263 21.7315 38.3321L23.2953 38.3217C25.495 38.3078 27.9406 38.3054 29.2232 38.2334C28.5354 38.3007 28.1595 38.4195 28.5849 38.4684C28.013 38.4783 26.8419 38.573 25.5451 38.5533C25.3379 38.5156 23.7359 38.4729 24.7669 38.4299C21.1821 38.4566 25.2521 38.5329 24.1939 38.6202C28.1659 38.5974 30.4958 38.46 33.0029 38.4047L33.0664 38.4324L34.9595 38.3798C33.4125 38.3642 33.489 38.2312 35.4829 38.2779L35.2404 38.2844C36.3777 38.3404 38.7439 38.2745 40.5206 38.2833L41.7251 38.2063C43.5046 38.2151 43.581 38.3583 44.1595 38.4442C44.7912 38.4466 45.4228 38.4421 46.0544 38.4306C46.3438 38.4265 46.607 38.4151 46.9023 38.4165C47.1883 38.4183 47.465 38.4329 47.7341 38.4586C48.8089 38.5673 49.7725 38.8285 50.7472 39.309C50.956 39.4387 51.3578 39.6841 51.774 40.008C52.1925 40.3289 52.6206 40.7301 52.9381 41.0877C53.2585 41.4431 53.4705 41.75 53.5228 41.838C53.57 41.9309 53.4714 41.7943 53.0694 41.3541C53.5246 41.8556 53.811 42.2379 54.0524 42.5663C54.2912 42.8967 54.4814 43.1784 54.6722 43.5321C54.8603 43.8864 55.0533 44.315 55.2159 44.9602C55.2965 45.2827 55.3635 45.6601 55.4022 46.1066C55.4213 46.3469 55.4297 46.5879 55.4274 46.829L55.4235 47.0242L55.4166 47.2094L55.4007 47.6L55.3704 47.0401C55.3634 46.9006 55.3536 46.7613 55.3409 46.6222C55.3311 46.5073 55.321 46.4313 55.321 46.4313C55.3415 46.7101 55.3432 47.0141 55.3439 47.2731L55.3496 48.0985L55.3654 49.8141L55.4033 53.2688C55.427 55.4927 55.4411 57.4386 55.4094 58.3888C55.301 57.628 55.2461 58.916 55.1915 60.4859L55.1037 62.8549C55.0701 63.8286 55.0301 64.5326 54.977 64.7084C55.0012 64.6014 55.0175 65.056 55.0308 65.5958C55.0442 66.1338 55.0546 66.7528 55.0676 66.935L55.0523 67.2359C54.716 66.8756 54.2993 66.4484 53.8634 66.0613C54.5689 66.7941 54.45 66.7422 54.3591 66.7046C54.2687 66.6676 54.2326 66.6715 55.214 67.6266L55.1969 66.5877L55.2562 67.7282C54.5459 67.0996 53.6435 66.2677 52.4793 65.152L50.9542 63.6827C50.4733 63.2148 49.9964 62.743 49.5233 62.2673L49.6222 62.2411L51.5105 64.1676C51.4739 64.1079 51.5075 64.1247 51.5852 64.1894L51.6514 64.2465L51.6899 64.281L51.7532 64.3406L52.0472 64.6216C52.4721 65.0314 53.0044 65.555 53.3098 65.8389L51.7962 64.2924L51.62 64.1064L51.494 63.9699C51.4196 63.8884 51.3639 63.8253 51.3227 63.7765C51.1584 63.5819 51.2312 63.6203 51.2999 63.658C51.4373 63.7329 51.5594 63.8034 49.7418 61.9939C49.3508 61.684 49.5946 61.8943 48.6357 60.9676C49.0812 61.4089 49.2041 61.4456 48.4904 60.7303L47.7542 60.094C46.5919 58.7229 49.9188 62.1229 48.9115 60.9688L51.3597 63.2847C51.5299 63.4431 51.7001 63.6014 51.8705 63.7596C52.0361 63.9092 52.1767 64.0359 52.2833 64.132C52.5129 64.3327 52.5944 64.3809 52.4807 64.2272L52.044 63.7844L51.6938 63.4364C51.5007 63.2466 51.3052 63.0594 51.1072 62.8747C50.7575 62.5492 50.4787 62.3073 50.1966 62.0618C49.6326 61.5708 49.0565 61.0659 47.879 59.852L47.6585 59.5632C46.7941 58.745 46.6031 58.6642 46.1093 58.2369C46.0871 58.1761 45.8879 57.9477 45.3531 57.4018C43.8521 56.0616 42.8935 55.1347 41.4955 53.9122C45.0487 57.3339 44.4158 56.9548 48.074 60.4959C47.4839 59.9578 44.9308 57.4426 44.6886 57.3734L44.785 57.3442C43.582 56.2065 42.3802 55.0689 40.9308 53.5782L41.8634 54.4402C41.4031 53.9992 40.9507 53.5502 40.5064 53.0932L39.907 52.4727L39.642 52.1953C39.6314 52.1812 39.6173 52.1701 39.6012 52.163C39.5829 52.1551 39.5628 52.1521 39.543 52.1543C39.5231 52.1565 39.5042 52.1638 39.488 52.1754C39.4719 52.1871 39.459 52.2028 39.4507 52.2209C39.4424 52.2391 39.4389 52.259 39.4406 52.2789C39.4422 52.2989 39.4493 52.3181 39.4613 52.3342C39.4638 52.3382 39.4673 52.3416 39.4705 52.3451L39.4755 52.35C39.4764 52.349 39.4639 52.3364 39.4735 52.3464L39.6032 52.4689C39.7987 52.6519 39.9973 52.8315 40.199 53.0076L39.5143 52.3164C39.5066 52.3075 39.5007 52.2973 39.497 52.2861L39.494 52.2767C39.4942 52.2792 39.4933 52.2645 39.493 52.2809L39.4932 52.2571C39.491 52.2705 39.4913 52.2499 39.491 52.2482C39.4906 52.2659 39.4955 52.2834 39.5049 52.2984C39.5071 52.3026 39.5184 52.3152 39.5158 52.31L39.6818 52.4721L40.5369 53.3173C41.1142 53.8934 41.6974 54.4852 42.2376 55.0358L44.5989 57.1903C44.5477 57.2012 45.9763 58.6337 45.236 57.9925C46.8129 59.665 47.6733 60.3387 48.6282 61.2626C50.2247 62.9925 47.1564 59.8501 46.9058 59.7725C49.1688 62.0938 51.6251 64.4978 52.9762 65.7364C52.5215 65.2565 52.3055 65.0187 52.3448 65.0276C52.394 65.1161 53.323 66.0351 53.8375 66.5507L54.2331 66.865C55.0627 67.7498 54.9174 67.6523 54.1563 66.9525C54.3964 67.1952 54.6407 67.4336 54.8892 67.6677L55.2777 68.0352L55.3756 68.1279L55.4243 68.1743L55.4485 68.1977L55.4606 68.2092L55.4667 68.2151L55.4682 68.2166C55.9282 67.8143 54.8385 68.7703 54.9675 68.6466L55.0036 68.5925L55.0753 68.4839L55.3242 68.0967L55.3682 68.1219L55.3956 68.1375L55.4057 68.1432L55.4131 68.1473C55.4168 68.1415 55.4169 68.1414 55.3768 68.2087L55.2901 68.3547L55.2033 68.5005C55.1494 68.5704 55.1915 68.5146 55.1809 68.5279L55.2026 68.4908L55.2451 68.4165L55.3959 68.1367L55.3988 68.1377L55.4127 68.1436C55.4227 68.1489 55.4393 68.1521 55.4398 68.157L55.3854 68.1338C55.419 68.1446 55.4408 68.1511 55.445 68.1515L55.4452 68.1516L55.4279 68.2138C55.4158 68.2591 55.403 68.2862 55.3916 68.3236C55.3684 68.3933 55.3483 68.464 55.3313 68.5354L55.3042 68.7101L55.3009 68.732C55.2987 68.7345 55.3032 68.742 55.2957 68.7402L55.298 68.7298L55.3066 68.6885L55.3209 68.6055C55.3429 68.471 55.3618 68.336 55.3775 68.2007L55.3837 68.1459C55.3854 68.1303 55.3837 68.1417 55.3845 68.138L55.3855 68.138L55.3884 68.1382C55.4102 68.1397 55.4801 68.1419 55.5023 68.1414L55.4408 68.6542L55.3879 68.3948L55.3365 68.1582L55.339 68.1575L55.3504 68.1546L55.3805 68.1469L55.4366 68.1318C55.449 68.1605 55.4015 68.0055 55.5273 68.4244L55.5837 68.6085L55.6126 68.6967L55.62 68.7187C55.6639 68.8517 55.254 67.6093 55.4275 68.1347L55.4279 68.1345L55.4294 68.134L55.4403 68.1305L55.4709 68.1202L55.4788 68.1175L55.4784 68.1175L55.4783 68.1177L55.4784 68.1185L55.483 68.1315L55.5199 68.2354L55.5963 68.4422L55.656 68.6036L55.686 68.6792L55.7015 68.717L55.7094 68.7357L55.7134 68.7451C55.0026 67.6059 55.5169 68.4289 55.3585 68.1746L55.3822 68.1614C55.4204 68.142 55.4552 68.1167 55.4853 68.0863L55.7045 67.8814L55.9323 67.6778L55.5164 68.1177C55.4865 68.1526 55.4521 68.1856 55.4104 68.2077L55.3874 68.2215L55.3857 68.2225C55.3145 68.1101 56.0063 69.2122 55.7114 68.7409L55.7074 68.7313L55.6917 68.6937L55.6613 68.6179L55.6034 68.4615L55.5265 68.2544L55.4962 68.1698L55.4966 68.1698L55.4883 68.173L55.4576 68.1837L55.4468 68.1874L55.4453 68.1879L55.4447 68.1881C55.5228 68.4251 55.2693 67.6576 55.6197 68.7197L55.616 68.7088L55.5868 68.6206L55.531 68.4389L55.465 68.2208C55.4494 68.1681 55.4561 68.1899 55.4547 68.1852L55.4546 68.1852L55.4512 68.1864L55.3936 68.2027L55.363 68.2108L55.3509 68.2139L55.3479 68.2148C55.3491 68.2215 55.3424 68.1909 55.358 68.2642L55.3867 68.394L55.4398 68.654L55.5013 68.1993C55.4762 68.2002 55.4067 68.1978 55.3818 68.1958C55.3792 68.1976 55.3768 68.1911 55.3766 68.2C55.3582 68.3505 55.341 68.4832 55.32 68.605L55.3057 68.688L55.2972 68.7293L55.295 68.7397C55.3022 68.7434 55.298 68.7345 55.3 68.7325L55.3034 68.7106L55.3304 68.5359C55.3474 68.4645 55.3675 68.3938 55.3906 68.3241C55.402 68.2867 55.4149 68.2595 55.4269 68.2144C55.4309 68.1988 55.4274 68.2101 55.4282 68.2064L55.3666 68.1871L55.4181 68.2065L55.3875 68.1953L55.3729 68.1884L55.3721 68.1879L55.3703 68.1909L55.3585 68.2129L55.3125 68.2986L55.2231 68.4615L55.1998 68.5018L55.188 68.5218C55.204 68.4997 55.1354 68.5996 55.2208 68.4772L55.3872 68.197L55.3862 68.1963L55.3842 68.1951L55.3284 68.1617L55.3014 68.1452L55.2958 68.1419L55.298 68.1432L55.0447 68.5354L54.9668 68.6532C55.898 67.8582 55.2245 68.4323 55.4321 68.2546L55.4306 68.2529L55.4272 68.2497L55.4208 68.2432L55.214 68.0374L54.8059 67.6302L54.0376 66.8603C53.5547 66.3765 53.1413 65.9657 52.861 65.7079C53.3993 66.2299 53.93 66.7599 54.4528 67.2975L55.0474 67.919L55.3197 68.2087L55.3857 68.2801L55.3939 68.289L55.3949 68.2902L55.3954 68.2909C55.484 68.2195 54.5778 68.9863 54.9883 68.6214L55.1939 68.3073L55.2446 68.2284C55.2539 68.215 55.2625 68.2013 55.2706 68.1872L55.27 68.1867L55.2685 68.1861L55.2836 68.1965L55.321 68.2213L55.3563 68.2448L55.3577 68.2457L55.3583 68.246L55.2463 68.4345C55.1912 68.5292 55.1603 68.5595 55.1826 68.5312L55.1905 68.518L55.206 68.4914L55.2664 68.3844C55.3007 68.3218 55.361 68.2059 55.3451 68.2393C55.347 68.2409 55.3491 68.2422 55.3513 68.2433L55.3965 68.2679L55.3493 68.2501L55.4121 68.2744L55.4132 68.2751L55.4124 68.2749C55.4121 68.2753 55.4121 68.2739 55.4112 68.2756L55.4067 68.2885L55.3978 68.3146C55.3745 68.3843 55.354 68.4548 55.336 68.5262L55.3081 68.7017C55.3042 68.7157 55.3076 68.7316 55.2975 68.7442L55.3063 68.7032L55.321 68.6206L55.3499 68.432L55.3714 68.269C55.3708 68.2694 55.375 68.27 55.3775 68.2705C55.4054 68.2758 55.4744 68.2811 55.5041 68.2835L55.4426 68.6574C55.4196 68.5381 55.3948 68.4192 55.3684 68.3006C55.3669 68.2946 55.3691 68.2988 55.3692 68.2974L55.3763 68.2962L55.3968 68.2924L55.4421 68.283L55.4806 68.2746L55.4826 68.2742L55.4826 68.2744L55.4888 68.2954L55.5354 68.4479C55.5617 68.5368 55.5859 68.6157 55.6141 68.6992C55.551 68.5074 55.7702 69.1719 55.4752 68.2771L55.4762 68.2768L55.4783 68.2761L55.4823 68.2749L55.5077 68.2675L55.5265 68.2623C55.5285 68.2616 55.5313 68.261 55.5302 68.2615L55.6254 68.5195C55.6516 68.592 55.6797 68.6638 55.7097 68.7348C55.9652 69.1403 55.3755 68.2148 55.4361 68.307L55.4383 68.3058L55.4428 68.3033L55.4465 68.3011L55.4499 68.2996L55.4564 68.2964L55.4697 68.29C55.4875 68.2816 55.5055 68.2732 55.5221 68.2622C55.5388 68.2509 55.5549 68.2388 55.5703 68.2259L55.6264 68.175L55.8033 68.008L56.59 67.2527C57.167 66.6908 57.8649 65.9942 58.7809 65.0523C58.8459 65.0262 58.2563 65.6916 58.9707 64.9782C60.6097 63.3093 59.319 64.4624 59.7903 63.9005C58.5423 65.1991 57.9251 65.7666 57.1346 66.4543L57.4413 66.0814C57.51 66.0471 58.3105 65.2485 58.5627 65.0294L58.7012 64.7561C58.6807 64.9258 60.0168 63.7031 60.9943 62.6698C59.9242 63.6319 60.2015 63.3602 59.8402 63.5518C61.1736 62.0576 61.5145 62.0355 63.0142 60.3654C62.9194 60.5082 61.5537 61.9096 62.7674 60.7324C63.7605 59.7461 63.5703 59.8199 64.2157 59.1377C63.5302 59.9472 63.7682 59.8014 63.0318 60.6852C61.2814 62.4514 62.3216 61.3937 60.6302 63.1394L62.1375 61.7371C60.6579 63.237 61.1252 62.8915 61.0263 63.038C63.6335 60.5569 62.8492 61.0262 64.5024 59.4058C65.2488 58.5742 62.9601 60.9301 64.15 59.6512C65.6897 58.1294 64.4584 59.2617 66.1495 57.5165L65.8905 57.8328C66.4525 57.3445 66.9263 56.7798 67.5277 56.1659C68.1772 55.4787 66.5551 56.7069 69.2989 53.9547C69.1817 54.1066 69.1432 54.1672 69.1504 54.1744L66.9913 57.3764L71.4452 52.9434L71.5918 52.7984C71.6379 52.7522 71.698 52.6953 71.7245 52.6646C71.8238 52.5502 71.8764 52.4026 71.8719 52.2512C71.8673 52.0998 71.806 51.9556 71.7 51.8474C71.5663 51.706 71.3464 51.6332 71.1457 51.6759C71.0456 51.6957 70.952 51.7402 70.8734 51.8054C70.8324 51.8397 70.7832 51.8919 70.7318 51.9415L70.5812 52.0898L68.15 54.4763C67.2886 55.1337 70.367 52.091 70.1238 52.2423L70.3569 52.0157L70.5958 51.7834C70.6831 51.6971 70.7732 51.6055 70.8884 51.5499C71.1161 51.4303 71.3886 51.4456 71.5599 51.5195C71.6569 51.5581 71.7453 51.6154 71.8201 51.6882C71.8047 51.6846 71.747 51.6344 71.6432 51.5832C71.5082 51.5167 71.3573 51.4891 71.2075 51.5036C71.0126 51.5229 70.832 51.6146 70.7014 51.7606L70.2424 52.23C69.6558 52.8315 69.2498 53.2609 69.9521 52.6348L70.4181 52.159L70.6405 51.9329C70.7123 51.862 70.7898 51.7757 70.8471 51.731C71.1086 51.5184 71.4946 51.5459 71.719 51.7459C71.9541 51.9398 72.0227 52.2747 71.915 52.5337C71.889 52.5983 71.8536 52.6586 71.8099 52.7128C71.7697 52.7615 71.7039 52.8228 71.6468 52.8814L71.2984 53.2311C70.3739 54.1608 69.4732 55.0813 68.2859 56.3575C68.7197 56.026 69.5263 55.2103 70.4347 54.287L71.8398 52.8685C72.0805 52.6436 72.1582 52.2806 72.0517 51.9856C71.9511 51.6868 71.6809 51.4725 71.3943 51.4203C71.5108 51.4385 71.6224 51.4801 71.7224 51.5425C71.8225 51.6049 71.9089 51.6868 71.9765 51.7834C72.104 51.9664 72.1568 52.1912 72.1241 52.4118C72.0964 52.6254 71.976 52.8184 71.8285 52.9545L71.4205 53.3828L71.7064 53.1018C71.8005 53.0044 71.9014 52.9226 71.9933 52.8053C72.1686 52.5744 72.2212 52.2519 72.1223 51.9712C72.0726 51.8288 71.9883 51.7009 71.877 51.5991C71.7657 51.4973 71.6308 51.4248 71.4845 51.388C71.1902 51.3117 70.8536 51.3974 70.6307 51.6146L68.115 54.0847L67.7551 54.4941L69.834 52.4628C68.2951 53.984 67.0612 55.3309 67.0343 55.5073L67.3088 55.238L66.7792 55.8143C66.4155 56.1697 66.0519 56.5238 65.6901 56.876ZM60.9364 18.5923C60.8049 18.6025 60.7012 18.6143 60.6248 18.6291C60.7041 18.6136 60.6154 18.6037 60.9364 18.5923ZM48.452 62.6362L54.4684 68.7336C51.0817 65.0516 48.7064 62.4524 54.6105 68.3628L54.8094 68.5509L54.9458 68.6804L54.9591 68.693L54.9653 68.6989L54.9659 68.6997L54.9466 68.6834L54.9468 68.6836L54.9471 68.6837L54.9485 68.6846L54.951 68.6861L54.9728 68.6989L54.993 68.7103L54.9515 68.6832L54.9495 68.6819L54.9485 68.6812L54.968 68.6975L54.9675 68.697L54.9629 68.6923L54.9539 68.6826L54.9357 68.6634L54.8603 68.5845L54.6999 68.4184L54.3451 68.0545L53.5263 67.2256C52.9082 66.6048 52.2868 65.9873 51.662 65.3733L48.9982 62.9973L47.6961 61.8491L47.2936 61.5001C47.1986 61.4191 47.1465 61.3768 47.1489 61.3833C47.4658 61.7828 48.0346 62.2615 48.674 62.9263L48.452 62.6362ZM47.2522 60.9416C46.112 59.7685 46.3423 60.0641 46.133 59.9138L47.3597 61.1183C47.2134 60.957 47.148 60.8709 47.2522 60.9416ZM46.1724 60.012C46.3018 60.1427 46.4111 60.2549 46.4652 60.3167L46.1724 60.012ZM68.9079 55.8486L68.7908 55.9692L69.6303 55.1435C69.5147 55.2496 69.2999 55.457 68.9079 55.8486ZM66.4881 58.1239L66.2676 58.4523C66.5298 58.1942 66.792 57.9361 67.0543 57.6781C66.9421 57.7414 66.8291 57.8118 66.4881 58.1239ZM58.7657 65.4917C58.3547 66.0322 56.7644 67.6284 56.7414 67.8007C56.6591 67.9217 57.0014 67.5938 57.3837 67.2238L58.7325 65.8874C58.738 65.86 58.8223 65.7555 58.9703 65.5881C58.4918 66.0478 58.1599 66.3428 58.304 66.1068C59.6101 65.0009 59.3135 64.955 60.6428 63.6768C61.0051 63.2091 59.1398 65.0753 58.7657 65.4917ZM21.9576 17.0962C22.0093 17.1049 22.1897 17.1289 22.4425 17.1583L21.7958 17.1865C21.4757 17.2042 21.158 17.2428 21.158 17.2428C20.0212 17.3208 19.0017 17.5277 18.055 17.8685C17.1107 18.2106 16.2364 18.6902 15.4526 19.3634C14.6686 19.9256 14.2612 20.2567 13.8766 20.5817C14.1718 20.2646 14.4877 19.9673 14.8221 19.6918C15.2696 19.279 15.7537 18.9078 16.2683 18.5825C16.6077 18.3677 16.9613 18.1763 17.3268 18.0098C17.9092 17.7501 18.249 17.6637 18.552 17.5913C18.8567 17.5232 19.1278 17.4709 19.6087 17.377C20.0903 17.2919 20.7826 17.1412 21.9576 17.0962ZM14.6939 36.4242C14.5082 36.27 14.4334 36.2221 14.4334 36.2221C15.3792 37.0349 16.4513 37.6878 17.6075 38.1551C18.6309 38.5677 19.7093 38.8277 20.8083 38.9266C21.3203 38.9746 21.8126 38.9783 22.2898 38.9676L23.6604 38.9528C24.4472 38.946 25.234 38.9435 26.0207 38.9454C25.4819 38.8674 22.9713 38.811 21.7925 38.7749L22.8409 38.6894L23.4987 38.7583L25.3275 38.6786C24.8162 38.6197 23.3391 38.632 22.352 38.5868C22.3342 38.5901 22.1091 38.6026 21.8025 38.6113C21.4139 38.6198 21.0252 38.607 20.638 38.5727C20.2012 38.5335 19.7671 38.4681 19.3381 38.3768C19.019 38.308 18.7026 38.2273 18.3896 38.1348C18.3896 38.1348 18.9634 38.3605 19.5625 38.5117C20.1596 38.6699 20.7746 38.751 20.7746 38.7512C20.4448 38.7047 19.4612 38.5673 18.4529 38.2124C17.9522 38.0399 17.4645 37.8318 16.9936 37.5895C16.615 37.3943 16.2474 37.1784 15.8926 36.9427C15.8687 36.9533 16.3105 37.2971 16.8325 37.5899C17.3515 37.888 17.9466 38.1227 18.0961 38.1267C18.2095 38.2067 17.6584 38.013 17.2808 37.8443C17.0912 37.7624 16.943 37.693 16.9304 37.6989C16.9187 37.7031 17.0391 37.7891 17.408 37.9814C16.9002 37.7657 16.4126 37.505 15.9512 37.2025C15.4415 36.8691 14.9628 36.4906 14.5206 36.0718C13.6324 35.239 12.9753 34.2832 12.621 33.6522L12.5918 33.386C12.227 32.6879 12.1054 32.4515 11.9557 32.1841C11.8671 32.0209 11.7891 31.8521 11.7221 31.6789C11.6357 31.4533 11.5324 31.1473 11.4325 30.6865C11.5815 31.2464 11.6863 31.4913 11.7284 31.5825C11.7731 31.6733 11.7661 31.6082 11.7538 31.5299C11.7421 31.4515 11.7264 31.3592 11.7494 31.3949C11.7743 31.4298 11.8292 31.5956 11.9979 32.0182C11.9105 31.7402 11.9396 31.7266 11.9073 31.571C11.8926 31.4929 11.8623 31.3796 11.8064 31.1767C11.7515 30.9738 11.6675 30.682 11.5716 30.2407C11.3488 29.5175 11.3315 29.0297 11.3302 28.5642C11.3356 28.0958 11.3567 27.6439 11.3621 26.9291C11.4394 26.4584 11.4315 26.7164 11.4333 26.8575C11.4352 26.9282 11.439 26.9702 11.4563 26.8792C11.4751 26.7885 11.5007 26.5636 11.5882 26.1079C11.6671 25.5809 11.757 25.1976 11.8254 24.9139C11.8947 24.6304 11.9441 24.4462 11.971 24.3205C12.0268 24.0696 11.9928 24.0529 11.9685 23.9705C11.8056 24.3515 11.6744 24.7452 11.5761 25.1478C11.497 25.4741 11.4547 25.7454 11.4219 26.0051C11.3626 26.5259 11.3245 26.9989 11.2892 27.8218C11.2892 27.8218 11.2798 27.6169 11.2833 27.3083C11.2881 26.9301 11.3127 26.5524 11.3571 26.1767C11.4019 25.799 11.4666 25.4239 11.5511 25.053C11.6208 24.7487 11.6792 24.5483 11.6792 24.5483C11.4589 25.1226 11.3537 25.5689 11.2867 25.9446C11.4051 25.284 11.5474 24.7297 11.6817 24.2558C11.7532 24.0059 11.8347 23.7589 11.9263 23.5156C11.5304 24.3882 11.2835 25.2637 11.1469 25.9522C11.0094 26.6415 10.9677 27.1422 10.9338 27.291L10.9035 27.022C10.8485 27.3604 10.8246 27.8121 10.8417 28.2409C10.8565 28.6701 10.9109 29.0749 10.9595 29.3272C11.0594 30.1851 11.2899 31.0213 11.5291 31.6698C11.7661 32.3204 12.0007 32.7883 12.0538 32.9719L11.8912 32.6867C11.8113 32.5429 11.7365 32.3963 11.7365 32.3963C11.9105 32.7967 12.1081 33.1865 12.3283 33.5635C12.4972 33.853 12.6789 34.1348 12.8728 34.4082C13.3978 35.15 14.0092 35.8267 14.6939 36.4242ZM51.3892 62.5633C51.7196 63.012 52.0667 63.4482 52.4298 63.8708C52.886 64.4036 53.5775 65.1554 54.6476 66.2569C54.6559 65.7497 54.6613 65.1586 54.6636 64.4827L54.6606 62.2383L54.6735 62.7057C54.7913 59.7125 54.5178 56.8695 54.6487 53.2278C54.7194 54.995 54.713 54.8997 54.8747 56.8507L54.8217 54.9548C54.9238 55.4801 54.8709 53.5887 54.8758 52.1976L54.9972 53.4256C54.9623 54.2606 54.9497 56.4252 54.9774 56.3617C54.9639 55.8879 54.824 59.2197 54.8593 61.0299C54.9416 60.8433 54.9083 57.0215 55.0427 58.7281C54.9864 57.2239 55.0684 57.0375 55.0395 55.4651C55.096 56.973 55.1517 55.8383 55.2117 56.9607L55.1836 54.3827C55.211 54.3155 55.2444 58.1373 55.3457 56.0248C55.3026 54.9919 55.3566 52.2339 55.2681 52.1843L55.2953 52.1209C55.3145 50.1885 55.1699 51.2708 55.2204 48.898C55.1759 48.8702 55.145 49.3225 55.1542 50.1726C55.1741 50.891 55.2349 51.0013 55.2473 52.481C55.1779 53.1443 55.2559 50.696 55.1388 51.7233C55.0805 52.2337 55.1892 55.6301 55.0575 54.5475L55.0765 52.619C54.9878 52.5695 54.9928 51.1728 54.9213 51.212C54.8887 50.0327 54.9885 48.9195 54.9114 47.715C54.8826 47.4649 54.8417 47.5582 54.8136 47.4649C54.7997 47.4184 54.7889 47.325 54.7845 47.1187C54.7787 46.913 54.7861 46.5816 54.7402 46.073C54.7293 45.6727 54.6517 45.0751 54.4447 44.4049C54.2402 43.7352 53.8999 42.9983 53.443 42.3303C52.9896 41.6598 52.4241 41.063 51.8626 40.6074C51.3965 40.2278 50.8896 39.9012 50.3513 39.6337C50.3513 39.6337 49.9973 39.4679 49.6298 39.3393C49.2627 39.2084 48.8858 39.1159 48.8858 39.1159C48.9428 39.1553 49.6506 39.3719 50.1852 39.6428C50.4538 39.7741 50.6829 39.9052 50.7886 39.9755C50.8952 40.0446 50.8816 40.0471 50.6601 39.9369C50.6601 39.9369 50.1385 39.6374 49.576 39.4281C49.017 39.2098 48.4301 39.0853 48.4301 39.0853L48.6179 39.0957C48.2329 38.9939 47.8333 38.9319 47.4413 38.9022C47.0504 38.8722 46.6606 38.8824 46.3097 38.8948C46.5389 38.8748 46.769 38.8665 46.999 38.8698C47.2589 38.8749 47.5183 38.8927 47.7764 38.9234C48.2568 38.9798 48.5989 39.0552 48.4409 38.9689C47.8867 38.8367 47.559 38.7937 47.2433 38.7573C46.9273 38.7232 46.6134 38.7198 46.1127 38.7295C46.3339 38.723 46.5242 38.7139 46.4961 38.701C44.267 38.661 44.3436 38.8043 43.7846 38.8344C41.5434 38.9546 46.0435 38.9459 45.7571 39.041L39.2135 39.0919C39.7723 39.0618 40.335 39.0321 40.1242 38.9941C38.5193 38.9514 40.0878 38.9224 37.8345 38.9269C37.9949 39.0532 34.997 39.0057 33.4053 39.0786C32.6615 39.0268 32.5085 39.0164 34.135 39.0149C33.9484 38.933 31.7651 38.9644 30.9887 38.957C30.5389 38.9773 29.7722 38.9892 29.2859 39.0075C29.9373 39.0483 29.6591 39.0997 28.2493 39.1347L28.1672 39.152C30.4785 39.1745 34.0706 39.264 35.5195 39.18L35.11 39.2207C37.7851 39.2916 40.9313 39.0734 42.1649 39.2282C42.051 39.2896 42.7022 39.2424 42.6557 39.3309L44.6253 39.2617L44.2158 39.3018L45.8911 39.2917C46.3112 39.2914 46.7301 39.2803 47.0296 39.2961C47.334 39.3104 47.5354 39.3369 47.5354 39.3369L47.4482 39.3436C48.1445 39.3824 48.8325 39.5152 49.4932 39.7385C50.0224 39.9177 50.5312 40.1522 51.0111 40.4383C51.0343 40.4111 50.9604 40.3331 51.4072 40.6232C51.7642 40.8711 52.0938 41.1561 52.3905 41.4736C52.3925 41.4755 52.3925 41.4755 52.3928 41.4753L52.3925 41.4757C52.6728 41.7789 52.8784 42.0562 53.0782 42.3632C53.2765 42.6711 53.4707 43.0092 53.6879 43.4627C53.6879 43.4627 53.6027 43.2889 53.4564 43.0384C53.2769 42.7327 53.0773 42.4393 52.859 42.16C52.6404 41.8809 52.4036 41.6167 52.15 41.3692C51.9423 41.1668 51.7945 41.0423 51.7945 41.0421C51.6765 40.986 51.6605 41.0116 51.8049 41.1814C51.9462 41.3532 52.2595 41.6631 52.7014 42.2577C52.5144 42.0194 52.3574 41.8714 52.3179 41.8465C52.2756 41.8239 52.3535 41.9201 52.5853 42.2105C52.6194 42.2351 52.9317 42.616 53.1484 42.9444C53.3681 43.2699 53.5172 43.5256 53.3672 43.194C53.7277 43.8166 54.045 44.5992 54.2109 45.4945C54.2975 45.9595 54.3405 46.4316 54.3394 46.9046L54.321 48.4585C54.2964 50.588 54.2847 52.9091 54.347 55.1559C54.2721 51.9275 54.2591 57.7433 54.2321 54.1593C54.1271 56.6609 54.3354 56.3118 54.3191 58.8619C54.2813 59.0793 54.324 57.4735 54.2496 56.8876C54.2321 58.6372 54.258 60.1608 54.2921 61.6366L54.345 63.6541C54.3618 64.2766 54.3764 64.9355 54.3841 65.6224C53.9663 65.2147 53.5529 64.8027 53.1438 64.3863L53.0488 64.1753L51.3892 62.5633ZM45.5799 56.8979L43.8604 55.2182L44.0255 55.3868L42.3018 53.7564C43.3096 54.8095 43.925 55.552 42.4531 54.1393C42.5984 54.2368 42.206 53.7859 42.7215 54.2732C41.7898 53.2719 39.703 51.1177 40.1684 51.758C42.1083 53.5326 40.4899 52.3023 42.0105 53.7003C41.5906 53.3373 41.193 52.9552 40.8047 52.5749L40.2277 52.0078C40.1341 51.92 40.0297 51.8061 39.9569 51.7554C39.8744 51.6973 39.7788 51.6604 39.6786 51.6482C39.8857 51.6719 39.9689 51.7407 39.982 51.7211C39.9929 51.7112 39.9314 51.6235 39.7626 51.5583C39.6597 51.5208 39.5495 51.5079 39.4408 51.5205C39.2973 51.5367 39.1616 51.594 39.0499 51.6855C38.915 51.7953 38.8206 51.9471 38.7817 52.1167C38.7381 52.3063 38.7648 52.5053 38.8566 52.6768C38.9006 52.7534 38.9679 52.8305 39.0595 52.9152L39.3524 53.2036L40.0638 53.9107C40.573 54.4177 41.1253 54.9649 41.5552 55.3717C41.3106 55.0202 42.0698 55.7182 40.72 54.3414C41.4538 55.035 42.1671 55.75 42.8589 56.4854C42.5059 56.1506 41.8981 55.556 41.9203 55.6168C42.4304 56.2253 43.0879 56.8784 43.4282 57.2609L44.2991 58.1146C44.2193 58.0256 44.1523 57.9463 44.1078 57.8867L45.1134 58.7981C43.8118 57.5467 44.5484 58.1837 44.5966 58.1691C44.499 58.197 45.4099 58.9987 45.8489 59.4335L44.9668 58.419C45.4589 58.845 46.538 60.0859 46.3646 59.7816C44.3775 57.7418 43.5918 56.9785 41.7512 55.1772L42.4388 55.9677C41.3932 54.9585 41.0986 54.6199 40.7768 54.2453C40.6159 54.0582 40.4482 53.8622 40.1765 53.5689C40.0406 53.4223 39.8788 53.2513 39.6788 53.0452C39.5782 52.9427 39.4686 52.8307 39.3486 52.7081C39.2909 52.6491 39.2098 52.5703 39.2011 52.5517C39.1707 52.5102 39.1451 52.4627 39.129 52.4088C39.1122 52.3629 39.0991 52.3189 39.099 52.2512C39.0985 52.1857 39.1121 52.1208 39.1388 52.061C39.1655 52.0012 39.2047 51.9477 39.2538 51.9043C39.3073 51.8558 39.371 51.82 39.4403 51.7995C39.5174 51.7769 39.5989 51.7735 39.6777 51.7894C39.7564 51.8054 39.8302 51.8403 39.8924 51.8911C39.9159 51.909 39.9712 51.9657 40.0198 52.0132L40.1662 52.1576L40.4551 52.4418C41.2145 53.1878 41.8657 53.814 41.9364 53.7908C41.6188 53.5304 43.2878 55.3094 44.12 56.0565C45.0788 56.8436 47.73 59.4718 46.9696 58.6328C46.2574 57.9186 45.2503 57.0057 44.733 56.3765L46.1343 57.7423L45.2733 56.7875C45.7265 57.274 45.7267 57.1826 45.5799 56.8979ZM63.6481 62.3367L63.7028 62.2845L63.6432 62.3436L63.6481 62.3367Z" fill="#202020"/>
<path d="M50.9201 16.8202C51.4828 16.79 52.8739 16.795 52.6015 16.7299C52.635 16.8016 50.1159 16.7409 50.9201 16.8202ZM52.5836 16.8903C52.6816 16.8731 52.6135 16.8457 53.2377 16.8432L51.5191 16.8614L52.5836 16.8903ZM54.3277 17.3796C55.214 17.3261 55.7757 17.2961 57.167 17.3009C57.6894 17.4756 54.8894 17.3498 54.2586 17.5126C56.8087 17.529 57.5915 17.3764 59.6891 17.3617C58.6495 17.2887 54.4041 17.2467 54.3277 17.3796ZM53.1949 17.6001L54.613 17.5608L54.4731 17.5505L53.054 17.5899L53.1949 17.6001ZM22.4798 16.0833C22.4479 16.0696 22.3686 16.0628 22.2603 16.0603C22.1497 16.0581 22.0219 16.0593 21.8554 16.0649C21.5334 16.0763 21.1661 16.1141 20.9108 16.1448C21.1548 16.1259 21.3992 16.1135 21.6438 16.1075L22.0652 16.0985C22.2035 16.0957 22.3417 16.0906 22.4798 16.0833ZM22.854 39.6341L21.825 39.6537C21.5054 39.6562 21.1858 39.6463 20.8669 39.624C20.2916 39.5845 19.7199 39.5028 19.1565 39.3794C18.5871 39.2549 18.0285 39.0852 17.4861 38.8718C16.8365 38.6163 16.2131 38.2987 15.6245 37.9236C16.4848 38.511 17.2812 38.8748 18.0039 39.1276C18.7289 39.3788 19.3851 39.5182 20.0231 39.6062C20.6617 39.6929 21.284 39.7266 21.9601 39.7212C22.6017 39.7128 23.2894 39.716 24.1072 39.7443L22.854 39.6341ZM21.814 40.0678C21.3581 39.9677 24.0671 39.9485 23.649 39.8736C22.6703 39.8862 22.4423 39.9105 22.2371 39.9309C22.1316 39.9408 22.0454 39.9509 21.8434 39.9551C21.646 39.9572 21.3554 39.9561 20.876 39.91C20.876 39.91 21.1078 39.9589 21.3425 39.9981C21.577 40.0382 21.814 40.0678 21.814 40.0678ZM12.3225 31.666C12.3225 31.666 12.4079 31.8549 12.5006 32.0395C12.5931 32.2245 12.6931 32.4045 12.6931 32.4045C12.6931 32.4045 12.6182 32.2569 12.548 32.1067C12.4772 31.9566 12.4121 31.804 12.4121 31.804L12.3225 31.666ZM35.0677 39.9781L34.7469 40.0012L36.2032 40.0338L35.0677 39.9781ZM12.9449 32.5407C12.9449 32.5407 12.8142 32.2696 12.7025 31.9908C12.5886 31.7127 12.4937 31.428 12.4935 31.428L12.3751 31.1545L12.2651 30.8768C12.2651 30.8768 12.3954 31.3085 12.568 31.7244C12.7359 32.1422 12.9449 32.5407 12.9449 32.5407ZM21.3727 38.683C21.3727 38.683 21.0888 38.6756 20.8053 38.6514C20.5218 38.6289 20.2398 38.5896 20.2398 38.5898C20.3513 38.6069 20.7915 38.6803 21.1281 38.7059C21.4646 38.7331 21.6927 38.7322 21.3727 38.683ZM43.9625 40.0217L45.3872 39.9823L45.2417 39.972L43.8216 40.0115L43.9625 40.0217ZM30.5191 38.418C29.7103 38.339 32.8556 38.3966 31.191 38.3268C29.7102 38.339 30.311 38.3803 30.5191 38.418ZM47.7188 39.0299C47.9114 39.0554 48.1133 39.0892 48.308 39.1218C48.113 39.0824 47.9164 39.0518 47.7188 39.0299ZM47.7188 39.0299C47.4082 38.9869 47.0958 38.9548 46.8065 38.9441C46.5525 38.9348 46.2981 38.9355 46.0441 38.9464C46.8158 38.9807 47.1053 38.9644 47.7188 39.0299ZM53.5317 42.8527C53.5317 42.8527 53.4591 42.7301 53.3825 42.6098C53.3064 42.4892 53.225 42.3721 53.225 42.3721C53.407 42.6004 53.4524 42.6636 53.4195 42.6115C53.385 42.5606 53.2696 42.397 53.1013 42.1978C52.7301 41.7204 52.721 41.7728 52.6644 41.7273C52.5779 41.643 52.4898 41.562 52.3928 41.4757C52.5126 41.588 52.6294 41.7035 52.7429 41.8222C53.3415 42.5376 53.5975 43.0531 53.5317 42.8527ZM53.1227 62.9024C53.2725 63.0938 53.3629 63.2043 53.3926 63.3209C53.4195 63.3504 53.4431 63.3751 53.4611 63.3926C53.4583 63.1136 53.3702 63.0022 53.3482 62.8742C53.3538 62.9879 53.3506 63.0578 53.3479 63.1191C53.2851 63.0518 53.2364 62.9994 53.1227 62.9024ZM53.3482 62.8742L53.3434 62.7921C53.3415 62.8243 53.344 62.8487 53.3482 62.8742ZM46.5107 38.265L46.722 38.2515C46.8849 38.2423 47.048 38.238 47.2112 38.2386C47.5681 38.2367 47.926 38.2686 47.926 38.2685C47.926 38.2685 47.7955 38.2517 47.6647 38.2403C47.534 38.2273 47.403 38.2196 47.403 38.2196C47.403 38.2196 47.1757 38.2186 46.9501 38.2314C46.8373 38.2361 46.7249 38.2461 46.6409 38.2524L46.5107 38.265ZM51.1635 60.8994C51.4332 61.1747 51.872 61.6096 52.0715 61.8389C52.1936 61.8738 50.8944 60.625 51.1635 60.8994ZM54.5254 64.1189C54.563 63.9499 54.5405 62.6414 54.5549 62.0945C54.5511 62.4813 54.5207 62.843 54.5029 63.1512C54.4851 63.468 54.4797 63.7517 54.5254 64.1189ZM46.7696 56.8628C47.0392 57.1381 47.429 57.5862 47.2117 57.4406C47.6287 57.8153 48.241 58.2746 46.7696 56.8628ZM53.2525 64.6733L53.4561 64.9063L54.3915 65.7861L53.2525 64.6733ZM55.42 62.9804L55.4129 62.7679L55.4059 62.6658C55.4032 62.6256 55.3984 62.5856 55.3912 62.546C55.3813 62.5005 55.3709 62.5203 55.3605 62.5801C55.3553 62.6102 55.3499 62.6502 55.3447 62.6972L55.3367 62.7728L55.3286 62.9018L55.2965 63.4616C55.2752 63.8273 55.2542 64.1231 55.2345 64.074C55.2248 64.0495 55.2154 63.9397 55.2065 63.7122L55.1935 63.2789L55.1815 62.6843L55.164 64.089C55.1615 64.4295 55.1623 64.646 55.1652 64.7787C55.1712 65.0437 55.1862 64.9723 55.2031 64.8559C55.237 64.6253 55.2792 64.2005 55.2732 66.1679C55.2854 65.0378 55.3148 64.1941 55.3447 63.644C55.3748 63.0959 55.4054 62.8531 55.42 62.9804ZM39.2946 51.731C39.4431 51.6494 39.5694 51.6406 39.6788 51.6485C39.5409 51.6311 39.4057 51.662 39.2946 51.731ZM48.8841 61.4635L50.6567 63.0807C49.4729 62.0001 46.6278 59.1488 46.7279 59.4035C47.6344 60.3416 48.7647 61.4309 49.2542 61.8533L48.8841 61.4635ZM46.4358 62.0686L45.6734 61.3675L46.5774 62.2897C46.3277 62.0166 46.8583 62.4336 46.4358 62.0686ZM46.7524 62.4679L46.5774 62.2897C46.6144 62.3303 46.6696 62.3871 46.7524 62.4679ZM42.5012 54.2647C43.0432 54.8176 43.4834 55.2536 43.9966 55.7392C43.8039 55.5175 42.4533 54.1395 42.5012 54.2647ZM51.7005 67.1084L50.4797 65.914L51.8028 67.2256L51.7005 67.1084ZM59.2601 67.2528L59.4831 67.059L60.4575 66.029L60.2313 66.2264L59.2601 67.2528ZM51.3823 64.009C50.5705 63.1806 49.8594 62.6083 50.0591 62.8374L51.6523 64.4246C51.3099 63.9606 51.2093 63.9852 50.3031 63.0482L51.3823 64.009Z" fill="#202020"/>
<path d="M57.3585 49.0017C57.4159 49.5037 57.3827 51.9615 57.3281 52.0901C57.3044 51.7599 57.2817 50.4276 57.247 51.2644L57.388 53.209C57.3002 55.7952 57.2026 51.243 57.1529 49.9655C57.1348 52.6006 57.2275 53.3815 57.2268 56.1842C57.235 55.5883 57.2611 54.9927 57.3049 54.3983C57.4042 54.3033 57.3602 56.9147 57.3681 58.7818C57.4112 57.5933 57.4475 58.2809 57.4865 59.1468C57.4878 59.2579 57.493 59.369 57.5019 59.4797L57.5159 59.7737L57.5157 59.5498C57.5268 59.5657 57.5402 59.5162 57.5587 59.3548C57.5298 57.7881 57.6128 56.5902 57.6141 55.5815C57.4527 56.5781 57.5768 52.1469 57.5271 50.8789L57.5112 49.4149L57.5108 48.8671C57.5285 48.7571 57.5508 48.9128 57.5827 49.748C57.5505 49.0472 57.5629 46.7349 57.5093 46.933L57.5046 46.676C57.4987 46.5125 57.4898 46.2787 57.4628 45.9992C57.4134 45.4402 57.292 44.6971 57.0802 43.9776C56.8732 43.2565 56.5788 42.5639 56.3216 42.0647C56.064 41.5654 55.8599 41.2511 55.8597 41.2511L55.6009 40.8093C55.4747 40.6439 55.445 40.6226 55.4551 40.6489C55.4551 40.6489 55.3968 40.5653 55.2804 40.4138C55.1134 40.1942 54.9378 39.9813 54.7541 39.7755C54.0987 39.0389 53.3471 38.3939 52.5195 37.858C51.4964 37.193 50.1699 36.5945 48.6632 36.3101C48.0875 36.2003 47.5039 36.137 46.9181 36.121L46.6196 36.1168L46.3528 36.1168L44.1975 36.1178L32.6421 36.123C33.7822 36.1358 34.7684 36.1726 35.9442 36.1904C34.1796 36.2975 37.8718 36.2097 37.3541 36.3111C36.5609 36.3479 35.4001 36.3363 34.7087 36.3116C34.4512 36.3629 35.4365 36.4082 35.3227 36.4694C38.2376 36.5337 38.6836 36.2888 41.5331 36.3259C41.4203 36.3872 40.5394 36.441 42.4046 36.4326L41.9306 36.4458C44.9174 36.3771 44.2576 36.5846 46.1377 36.4163L46.0883 36.5048L46.655 36.4833C46.8932 36.4777 47.1316 36.4811 47.3696 36.4934C47.9055 36.522 48.4383 36.5939 48.9627 36.7084C50.0518 36.9393 51.1008 37.3902 51.8085 37.7913L51.7154 37.7587C52.7234 38.2965 53.2957 38.7678 53.7005 39.1162C54.0102 39.3862 54.3014 39.6767 54.5722 39.9856C54.806 40.2549 55.0461 40.5434 55.3901 41.0433C55.5989 41.3495 55.7923 41.666 55.9694 41.9917C56.2285 42.4672 56.4512 42.9617 56.6357 43.4708C56.6357 43.4708 56.581 43.3326 56.4914 43.129C56.3804 42.8814 56.2605 42.6378 56.132 42.3988C55.8532 41.8768 55.514 41.3959 55.514 41.3959C55.9615 42.1541 56.1921 42.6419 56.3947 43.0757C56.5905 43.5119 56.7535 43.901 56.9003 44.5203C56.8811 44.4781 56.8732 44.5322 56.8327 44.4522C56.7899 44.373 56.7249 44.1564 56.5279 43.5949C56.5279 43.5949 56.562 43.6853 56.6177 43.8447C56.6942 44.0654 56.7628 44.2888 56.8235 44.5144C56.978 45.0736 57.1237 45.8392 57.169 46.6152C57.192 47.0176 57.1947 47.3549 57.2058 47.6908L57.231 48.6002L57.2555 49.4873C57.3225 50.8426 57.3209 49.2126 57.3585 49.0017Z" fill="#202020"/>
<path d="M57.2268 56.1842C57.2221 56.4847 57.22 56.8262 57.2234 57.2293L57.2268 56.1842ZM31.0188 36.1237L32.6424 36.1228C32.1395 36.1175 31.6151 36.1158 31.0188 36.1237ZM57.4201 63.0175C57.4429 62.9164 57.4589 62.9391 57.4735 62.9597C57.488 62.9834 57.5012 63.0101 57.5182 62.9859L57.5165 61.7052C57.4824 61.7209 57.4441 61.3721 57.413 61.4428L57.4166 62.7899L57.4201 63.0175Z" fill="#202020"/>
<path d="M57.5809 60.6844C57.5571 60.565 57.5359 60.1916 57.5158 59.7737L57.5166 61.7051C57.5423 61.693 57.5656 61.4765 57.5809 60.6844ZM55.7601 61.0576L55.757 60.4334L55.7308 59.4891L55.7601 61.0576ZM55.9101 51.2951C55.8584 52.0406 55.8977 53.455 55.9108 53.9282C55.9091 52.2982 55.9288 53.0045 55.9101 51.2951ZM55.3558 53.3096L55.3265 51.7384L55.3164 51.8848L55.3558 53.3096ZM19.3487 36.0457C19.1285 35.9743 18.9112 35.8941 18.6973 35.8055C18.91 35.8973 19.1274 35.9775 19.3487 36.0457ZM32.5015 36.3879C28.7535 36.2884 34.9572 36.3052 33.7798 36.1779L31.7399 36.2201L31.9135 36.186L29.426 36.1971C29.9363 36.2555 30.3198 36.2592 30.2087 36.3205C26.888 36.2965 29.162 36.2476 26.7257 36.1702L23.014 36.1813L23.3145 36.163C23.0019 36.1643 22.8636 36.172 22.7565 36.1819L22.2191 36.1836L21.9435 36.1836C21.6128 36.1826 21.2825 36.1618 20.9543 36.1213C20.3748 36.0489 19.8048 35.914 19.2543 35.7189C18.6223 35.4945 18.0203 35.1931 17.4621 34.8214C16.9028 34.4484 16.391 34.0087 15.9381 33.5119C15.5434 33.0781 15.1959 32.6036 14.9014 32.0964C14.6938 31.7378 14.5139 31.3638 14.3632 30.9778C14.2542 30.6983 14.2047 30.534 14.2047 30.534C14.0439 30.0617 14.0024 29.8843 13.9828 29.8756C13.966 29.8658 13.9856 30.0207 14.015 30.1913C14.0429 30.3625 14.0839 30.5484 14.0824 30.6049C14.0824 30.6608 14.0295 30.5909 13.9062 30.2337C14.0741 30.8536 14.3112 31.4528 14.6128 32.0199C14.9271 32.6093 15.3166 33.1609 15.7187 33.6109C16.5216 34.5194 17.341 35.0048 17.4515 35.0089C17.3774 34.9781 17.2236 34.9242 17.6222 35.1945C17.6223 35.1945 17.9274 35.3549 18.2442 35.4844C18.5599 35.6171 18.884 35.7202 18.884 35.7204C18.884 35.7204 18.5868 35.592 18.3024 35.4392C18.1126 35.3382 17.9267 35.2297 17.7455 35.114C18.0493 35.2677 18.5211 35.5064 19.0964 35.7118C20.0312 36.0489 21.0165 36.2245 22.0102 36.2312L23.0197 36.2421C23.6339 36.2515 24.1115 36.2644 24.3356 36.28C22.927 36.2972 22.5762 36.336 22.0869 36.3623C21.8496 36.3741 21.6118 36.3849 21.1939 36.3492C20.7825 36.3079 20.2002 36.2339 19.3714 35.9451C19.5088 36.0249 20.1168 36.2631 19.3486 36.0456C19.8373 36.2036 20.3394 36.3169 20.8487 36.3838C21.2243 36.4334 21.6026 36.4585 21.9815 36.4589L22.3955 36.4586L25.6983 36.4557C27.8988 36.4524 30.1201 36.4401 32.5015 36.3879ZM28.3347 19.6271L28.2983 19.6382C28.3814 19.6323 28.4083 19.6278 28.3347 19.6271ZM26.7914 19.612L24.5502 19.7319L28.0445 19.7224L28.2983 19.6382C27.9894 19.6595 26.7644 19.7022 26.2895 19.6693L26.7914 19.612ZM21.9536 19.8052C23.7467 19.768 23.6571 19.6699 22.6701 19.6244C24.3272 19.5784 23.5444 19.7309 24.6854 19.6263C24.6481 19.5547 22.6056 19.5967 22.1363 19.6098C22.1365 19.61 21.9472 19.8045 21.9536 19.8052ZM13.7911 26.9049C13.7911 26.9049 13.7947 26.7917 13.8046 26.6786C13.8116 26.5654 13.8242 26.4524 13.8242 26.4524C13.8242 26.4524 13.7671 26.7255 13.731 27.0025C13.6922 27.2791 13.6756 27.5586 13.6754 27.5586C13.6754 27.5586 13.6974 27.3933 13.7266 27.2299C13.7557 27.0665 13.7911 26.9049 13.7911 26.9049ZM13.8242 26.4525C13.8242 26.4525 13.8785 26.1809 13.9527 25.9144C14.0246 25.6471 14.1168 25.3863 14.1167 25.3863C14.0649 25.4496 14.0102 25.5117 13.9393 25.6807C13.9393 25.6807 13.9003 25.8729 13.8726 26.066C13.8427 26.259 13.8242 26.4525 13.8242 26.4525ZM15.5261 22.8698C15.8682 22.4548 16.2476 22.0721 16.6595 21.7264C16.6595 21.7264 16.3478 21.982 16.0656 22.2704C15.8762 22.4614 15.6961 22.6614 15.5261 22.8698ZM14.7927 23.8981L14.8231 23.8724C14.8231 23.8724 14.9787 23.608 15.1562 23.358C15.3318 23.1068 15.5261 22.8698 15.5261 22.8698C15.2569 23.1942 15.0118 23.5379 14.7927 23.8981Z" fill="#202020"/>
<path d="M14.1165 25.3863C14.1794 25.3129 14.2419 25.2317 14.3647 24.9882C14.4929 24.7473 14.6655 24.3349 15.0764 23.6614L14.9486 23.765L14.8229 23.8724C14.8229 23.8724 14.6073 24.2313 14.4312 24.6113C14.253 24.99 14.1166 25.3863 14.1165 25.3863ZM54.2395 42.5273C54.2395 42.5273 54.0666 42.251 53.8723 41.9905C53.7434 41.8166 53.6085 41.6474 53.4677 41.483L53.5449 41.5968C53.5449 41.5968 53.7541 41.8442 53.9408 42.1096C54.13 42.3731 54.2988 42.6509 54.2988 42.6509L54.2395 42.5273ZM48.3016 38.2572C48.0407 38.2172 47.7778 38.1913 47.514 38.1798C47.8528 38.2065 48.1214 38.2413 48.3016 38.2572ZM42.3648 38.5705C40.6955 38.5006 44.6676 38.4781 41.5765 38.4472C41.304 38.3822 42.7531 38.2984 44.2086 38.3308C44.093 38.3919 42.7904 38.3699 43.6852 38.4324C44.6518 38.3617 45.0195 38.4099 44.6826 38.3177C45.4957 38.289 45.9475 38.2582 46.334 38.2271L46.8776 38.1848C47.0895 38.1733 47.3019 38.1718 47.514 38.1801C47.26 38.1604 47.0054 38.1491 46.7506 38.1462L45.7732 38.1453L43.4977 38.1378C41.9082 38.1341 40.2524 38.14 39.0049 38.1991C37.6296 38.31 38.4637 38.4613 38.4582 38.6214C38.6653 38.6587 42.2304 38.6765 42.3648 38.5705ZM44.9913 38.7302C45.764 38.7381 45.9999 38.7317 46.474 38.7184C46.3461 38.6635 45.6156 38.7277 44.9913 38.7302ZM27.2372 37.5247C27.0897 37.5475 25.692 37.5758 25.9925 37.6151L28.1114 37.5863C27.6143 37.5825 27.4389 37.5548 27.2372 37.5247ZM29.0408 37.5741L28.1116 37.5863C28.4214 37.5877 28.7312 37.5837 29.0408 37.5741ZM27.1366 37.5106L27.2373 37.5247C27.2671 37.52 27.2615 37.515 27.1366 37.5106ZM19.2089 20.2767C19.2044 20.3022 19.3944 20.2357 19.6396 20.1598C19.8873 20.0817 20.1378 20.0128 20.3906 19.9533C20.056 20.0131 19.588 20.1235 19.2089 20.2767ZM54.3267 19.6179L55.1608 19.6528C54.866 19.632 54.7148 19.6216 54.3267 19.6179ZM67.1823 18.4177C67.2067 18.4092 67.2682 18.402 67.3511 18.3952C67.2682 18.4008 67.2102 18.4082 67.1823 18.4177ZM67.3511 18.3952C67.9212 18.3588 69.681 18.4156 70.3136 18.36L70.2333 18.3769L71.4108 18.3438C70.307 18.3489 67.9903 18.342 67.3511 18.3952Z" fill="#202020"/>
</svg>
