<svg width="50" height="50" viewBox="0 0 50 50" fill="none" xmlns="http://www.w3.org/2000/svg">
<path d="M43 39H49V4H8V10H1V46H43V39ZM10 6H47V37H43V10H10V6ZM8 12H41V19.586L37 15.586L20 32.586L10 22.586L3 29.586V12H8ZM41 44H3V32.414L10 25.414L20 35.414L37 18.414L41 22.414V44Z" fill="black"/>
<path d="M20 25C22.757 25 25 22.757 25 20C25 17.243 22.757 15 20 15C17.243 15 15 17.243 15 20C15 22.757 17.243 25 20 25ZM20 17C21.654 17 23 18.346 23 20C23 21.654 21.654 23 20 23C18.346 23 17 21.654 17 20C17 18.346 18.346 17 20 17Z" fill="black"/>
</svg>
