<svg width="64" height="64" viewBox="0 0 64 64" fill="none" xmlns="http://www.w3.org/2000/svg">
<path fill-rule="evenodd" clip-rule="evenodd" d="M55 7C55 6.08066 54.8189 5.17033 54.4671 4.32098C54.1153 3.47164 53.5995 2.69992 52.9494 2.0499C52.2993 1.39987 51.5275 0.884286 50.6781 0.532562C49.8287 0.180838 48.9184 -0.000131262 47.999 7.14328e-08H17.999C16.1425 7.14328e-08 14.362 0.737493 13.0493 2.05025C11.7365 3.363 10.999 5.14348 10.999 7V9C10.999 9.26522 11.1044 9.51957 11.2919 9.70711C11.4795 9.89464 11.7338 10 11.999 10H53.999C54.2642 10 54.5186 9.89464 54.7061 9.70711C54.8937 9.51957 54.999 9.26522 54.999 9V7H55ZM52.999 7V8H12.999V7C12.999 5.67392 13.5258 4.40214 14.4635 3.46446C15.4012 2.52678 16.6729 2 17.999 2H47.999C49.3251 2 50.5969 2.52678 51.5346 3.46446C52.4723 4.40214 52.999 5.67392 52.999 7Z" fill="#D2AC69"/>
<path fill-rule="evenodd" clip-rule="evenodd" d="M44.97 1.243C45.0069 1.09555 45.0098 0.941618 44.9783 0.792908C44.9468 0.644197 44.8818 0.504616 44.7883 0.384781C44.6948 0.264946 44.5752 0.168009 44.4386 0.101334C44.302 0.034658 44.152 3.99596e-06 44 0H22C21.848 3.99596e-06 21.698 0.034658 21.5614 0.101334C21.4248 0.168009 21.3052 0.264946 21.2116 0.384781C21.1181 0.504616 21.0531 0.644197 21.0217 0.792908C20.9902 0.941618 20.993 1.09555 21.03 1.243L21.65 3.728C21.8125 4.37717 22.1874 4.95337 22.715 5.36504C23.2427 5.7767 23.8927 6.0002 24.562 6H41.438C42.1068 5.99975 42.7565 5.77605 43.2837 5.36443C43.8109 4.9528 44.1855 4.37684 44.348 3.728L44.97 1.243ZM42.719 2L42.408 3.243C42.3541 3.45941 42.2293 3.65156 42.0535 3.78877C41.8777 3.92598 41.661 4.00034 41.438 4H24.562C24.3389 4.00034 24.1222 3.92598 23.9464 3.78877C23.7706 3.65156 23.6458 3.45941 23.592 3.243L23.28 2H42.718H42.719ZM22.998 37C22.998 36.735 22.8927 36.4808 22.7054 36.2932C22.5181 36.1057 22.264 36.0003 21.999 36H9.99896C9.73375 36 9.47941 36.1054 9.29187 36.2929C9.10433 36.4804 8.99896 36.7348 8.99896 37V45C8.99896 45.7957 9.31505 46.5587 9.87766 47.1213C10.4403 47.6839 11.2033 48 11.999 48H19.999C20.7946 48 21.5577 47.6839 22.1203 47.1213C22.6829 46.5587 22.999 45.7957 22.999 45L22.998 37ZM21 38V45C21 45.2652 20.8946 45.5196 20.7071 45.7071C20.5195 45.8946 20.2652 46 20 46H12C11.7348 46 11.4804 45.8946 11.2929 45.7071C11.1053 45.5196 11 45.2652 11 45V38H21ZM40.5 46H27C26.7348 46 26.4804 46.1054 26.2929 46.2929C26.1053 46.4804 26 46.7348 26 47C26 47.2652 26.1053 47.5196 26.2929 47.7071C26.4804 47.8946 26.7348 48 27 48H40.5C40.7652 48 41.0195 47.8946 41.2071 47.7071C41.3946 47.5196 41.5 47.2652 41.5 47C41.5 46.7348 41.3946 46.4804 41.2071 46.2929C41.0195 46.1054 40.7652 46 40.5 46ZM10.5 54C7.74097 54 5.50098 56.24 5.50098 59C5.50098 61.76 7.74098 64 10.501 64C13.26 64 15.501 61.76 15.501 59C15.501 56.24 13.26 54 10.501 54H10.5ZM10.5 56C12.156 56 13.501 57.345 13.501 59C13.501 60.655 12.156 62 10.501 62C9.70533 62 8.94226 61.6839 8.37965 61.1213C7.81704 60.5587 7.50098 59.7957 7.50098 59C7.50098 58.2043 7.81704 57.4413 8.37965 56.8787C8.94226 56.3161 9.70533 56 10.501 56H10.5ZM35 54C32.241 54 30.001 56.24 30.001 59C30.001 61.76 32.241 64 35.001 64C37.76 64 40 61.76 40 59C40 56.24 37.76 54 35 54ZM35 56C35.7956 56 36.5587 56.3161 37.1213 56.8787C37.6839 57.4413 38 58.2043 38 59C38 59.7957 37.6839 60.5587 37.1213 61.1213C36.5587 61.6839 35.7956 62 35 62C34.2043 62 33.4413 61.6839 32.8786 61.1213C32.316 60.5587 32 59.7957 32 59C32 58.2043 32.316 57.4413 32.8786 56.8787C33.4413 56.3161 34.2043 56 35 56Z" fill="#D2AC69"/>
<path fill-rule="evenodd" clip-rule="evenodd" d="M9 38H23C23.2652 38 23.5196 37.8946 23.7071 37.7071C23.8946 37.5196 24 37.2652 24 37C24 36.7348 23.8946 36.4804 23.7071 36.2929C23.5196 36.1054 23.2652 36 23 36H9C8.73478 36 8.48043 36.1054 8.29289 36.2929C8.10536 36.4804 8 36.7348 8 37C8 37.2652 8.10536 37.5196 8.29289 37.7071C8.48043 37.8946 8.73478 38 9 38Z" fill="#D2AC69"/>
<path fill-rule="evenodd" clip-rule="evenodd" d="M19 37C19 36.7348 18.8946 36.4804 18.7071 36.2929C18.5196 36.1053 18.2652 36 18 36H14C13.7348 36 13.4804 36.1053 13.2929 36.2929C13.1054 36.4804 13 36.7348 13 37V40.5C13 41.163 13.2634 41.7989 13.7322 42.2677C14.2011 42.7366 14.837 43 15.5 43H16.5C17.163 43 17.7989 42.7366 18.2678 42.2677C18.7366 41.7989 19 41.163 19 40.5V37ZM17 38V40.5C16.9997 40.6325 16.947 40.7595 16.8533 40.8532C16.7595 40.947 16.6325 40.9997 16.5 41H15.5C15.3676 40.9995 15.2407 40.9466 15.147 40.853C15.0534 40.7593 15.0005 40.6324 15 40.5V38H17ZM53.832 63.979C54.0763 64.0288 54.3303 63.9855 54.5444 63.8577C54.7584 63.7298 54.917 63.5267 54.989 63.288C56.4051 58.5914 58.5633 54.1517 61.382 50.137L61.383 50.135C62.4381 48.627 63.0028 46.8304 63 44.99C63 40.023 58.967 35.99 54 35.99C49.033 35.99 45 40.023 45 44.99C45 46.906 45.6 48.683 46.649 50.125C49.4679 54.1403 51.6261 58.5808 53.042 63.278C53.202 63.807 53.602 63.944 53.832 63.979ZM54.018 59.901C52.5847 56.0252 50.6567 52.3508 48.282 48.969L48.271 48.954C47.4367 47.8014 46.9915 46.4128 47 44.99C47 41.127 50.137 37.99 54 37.99C57.863 37.99 61 41.127 61 44.99C61.0018 46.4206 60.5633 47.8172 59.744 48.99C57.3738 52.3654 55.4492 56.0328 54.018 59.901Z" fill="#D2AC69"/>
<path fill-rule="evenodd" clip-rule="evenodd" d="M53.999 41C51.791 41 49.999 42.791 49.999 45C49.999 47.207 51.791 49 53.999 49C56.207 49 57.999 47.207 57.999 45C57.999 42.791 56.207 41 53.999 41ZM53.999 43C54.5294 43.0001 55.0381 43.211 55.4131 43.5861C55.788 43.9613 55.9986 44.4701 55.9985 45.0005C55.9984 45.5309 55.7875 46.0396 55.4124 46.4146C55.0372 46.7896 54.5284 47.0001 53.998 47C53.4676 47 52.9589 46.7893 52.5838 46.4142C52.2087 46.0391 51.998 45.5304 51.998 45C51.998 44.4696 52.2087 43.9609 52.5838 43.5858C52.9589 43.2107 53.4676 43 53.998 43H53.999ZM40 13C34.48 13 30 17.48 30 23C30 28.518 34.48 33 40 33C45.518 33 50 28.518 50 23C50 17.48 45.518 13 40 13ZM40 15C44.415 15 48 18.584 48 23C48 27.415 44.415 30.999 40 30.999C35.584 30.999 32 27.415 32 22.999C32 18.584 35.584 14.999 40 14.999V15Z" fill="#D2AC69"/>
<path fill-rule="evenodd" clip-rule="evenodd" d="M39 14V16C39 16.2652 39.1054 16.5196 39.2929 16.7071C39.4804 16.8946 39.7348 17 40 17C40.2652 17 40.5196 16.8946 40.7071 16.7071C40.8946 16.5196 41 16.2652 41 16V14C41 13.7348 40.8946 13.4804 40.7071 13.2929C40.5196 13.1054 40.2652 13 40 13C39.7348 13 39.4804 13.1054 39.2929 13.2929C39.1054 13.4804 39 13.7348 39 14ZM45.656 15.929L44.242 17.343C44.0598 17.5316 43.9591 17.7842 43.9613 18.0464C43.9636 18.3086 44.0688 18.5594 44.2542 18.7448C44.4396 18.9302 44.6904 19.0354 44.9526 19.0377C45.2148 19.04 45.4674 18.9392 45.656 18.757L47.07 17.343C47.2522 17.1544 47.353 16.9018 47.3507 16.6396C47.3484 16.3774 47.2432 16.1266 47.0578 15.9412C46.8724 15.7558 46.6216 15.6506 46.3594 15.6483C46.0972 15.6461 45.8446 15.7468 45.656 15.929ZM49 22H47C46.7348 22 46.4804 22.1054 46.2929 22.2929C46.1054 22.4804 46 22.7348 46 23C46 23.2652 46.1054 23.5196 46.2929 23.7071C46.4804 23.8946 46.7348 24 47 24H49C49.2652 24 49.5196 23.8946 49.7071 23.7071C49.8946 23.5196 50 23.2652 50 23C50 22.7348 49.8946 22.4804 49.7071 22.2929C49.5196 22.1054 49.2652 22 49 22ZM47.07 28.657L45.656 27.243C45.4674 27.0608 45.2148 26.96 44.9526 26.9623C44.6904 26.9646 44.4396 27.0698 44.2542 27.2552C44.0688 27.4406 43.9636 27.6914 43.9613 27.9536C43.9591 28.2158 44.0598 28.4684 44.242 28.657L45.656 30.071C45.8435 30.2586 46.0979 30.3641 46.3632 30.3642C46.6284 30.3643 46.8829 30.259 47.0705 30.0715C47.2581 29.884 47.3636 29.6296 47.3637 29.3643C47.3638 29.0991 47.2585 28.8446 47.071 28.657H47.07ZM39 30V32C39 32.2652 39.1054 32.5196 39.2929 32.7071C39.4804 32.8946 39.7348 33 40 33C40.2652 33 40.5196 32.8946 40.7071 32.7071C40.8946 32.5196 41 32.2652 41 32V30C41 29.7348 40.8946 29.4804 40.7071 29.2929C40.5196 29.1054 40.2652 29 40 29C39.7348 29 39.4804 29.1054 39.2929 29.2929C39.1054 29.4804 39 29.7348 39 30ZM34.343 27.243L32.929 28.657C32.7414 28.8445 32.6359 29.0989 32.6358 29.3642C32.6357 29.6294 32.741 29.8839 32.9285 30.0715C33.116 30.2591 33.3704 30.3646 33.6357 30.3647C33.9009 30.3648 34.1554 30.2595 34.343 30.072L35.757 28.657C35.9392 28.4684 36.04 28.2158 36.0377 27.9536C36.0354 27.6914 35.9302 27.4406 35.7448 27.2552C35.5594 27.0698 35.3086 26.9646 35.0464 26.9623C34.7842 26.96 34.5316 27.0608 34.343 27.243ZM33 22H31C30.7348 22 30.4804 22.1054 30.2929 22.2929C30.1054 22.4804 30 22.7348 30 23C30 23.2652 30.1054 23.5196 30.2929 23.7071C30.4804 23.8946 30.7348 24 31 24H33C33.2652 24 33.5196 23.8946 33.7071 23.7071C33.8946 23.5196 34 23.2652 34 23C34 22.7348 33.8946 22.4804 33.7071 22.2929C33.5196 22.1054 33.2652 22 33 22ZM35.756 17.344L34.342 15.93C34.1534 15.7478 33.9008 15.647 33.6386 15.6493C33.3764 15.6516 33.1256 15.7568 32.9402 15.9422C32.7548 16.1276 32.6496 16.3784 32.6473 16.6406C32.645 16.9028 32.7458 17.1554 32.928 17.344L34.342 18.758C34.5306 18.9402 34.7832 19.041 35.0454 19.0387C35.3076 19.0364 35.5584 18.9312 35.7438 18.7458C35.9292 18.5604 36.0344 18.3096 36.0367 18.0474C36.0389 17.7852 35.9382 17.5326 35.756 17.344Z" fill="#D2AC69"/>
<path d="M40.0002 24.0005C40.5525 24.0005 41.0003 23.5528 41.0003 23.0005C41.0003 22.4482 40.5525 22.0005 40.0002 22.0005C39.448 22.0005 39.0002 22.4482 39.0002 23.0005C39.0002 23.5528 39.448 24.0005 40.0002 24.0005Z" fill="#D2AC69"/>
<path fill-rule="evenodd" clip-rule="evenodd" d="M11 9V29C11 29.2652 11.1054 29.5196 11.2929 29.7071C11.4804 29.8946 11.7348 30 12 30C12.2652 30 12.5196 29.8946 12.7071 29.7071C12.8946 29.5196 13 29.2652 13 29V9C13 8.73478 12.8946 8.48043 12.7071 8.29289C12.5196 8.10536 12.2652 8 12 8C11.7348 8 11.4804 8.10536 11.2929 8.29289C11.1054 8.48043 11 8.73478 11 9ZM53 9V37C53 37.2652 53.1054 37.5196 53.2929 37.7071C53.4804 37.8946 53.7348 38 54 38C54.2652 38 54.5196 37.8946 54.7071 37.7071C54.8946 37.5196 55 37.2652 55 37V9C55 8.73478 54.8946 8.48043 54.7071 8.29289C54.5196 8.10536 54.2652 8 54 8C53.7348 8 53.4804 8.10536 53.2929 8.29289C53.1054 8.48043 53 8.73478 53 9Z" fill="#D2AC69"/>
<path fill-rule="evenodd" clip-rule="evenodd" d="M7.855 57C8.099 57 8.334 56.911 8.517 56.75C9.06401 56.2659 9.76951 55.999 10.5 56C11.26 56 11.954 56.283 12.483 56.75C12.666 56.911 12.901 57 13.145 57H27C27.2652 57 27.5196 56.8946 27.7071 56.7071C27.8946 56.5196 28 56.2652 28 56V31C28 30.204 27.684 29.441 27.121 28.879C26.8426 28.6002 26.512 28.3791 26.148 28.2283C25.7841 28.0774 25.394 27.9999 25 28H7C6.204 28 5.441 28.316 4.879 28.879C4.60023 29.1574 4.3791 29.488 4.22827 29.852C4.07744 30.2159 3.99987 30.606 4 31V56C4 56.2652 4.10536 56.5196 4.29289 56.7071C4.48043 56.8946 4.73478 57 5 57H7.855ZM7.50101 55H6V31C5.9996 30.8686 6.0252 30.7384 6.07532 30.6169C6.12543 30.4953 6.19907 30.3849 6.29201 30.292C6.38495 30.1991 6.49535 30.1254 6.61685 30.0753C6.73836 30.0252 6.86857 29.9996 7 30H25C25.1314 29.9996 25.2616 30.0252 25.3831 30.0753C25.5047 30.1254 25.6151 30.1991 25.708 30.292C25.8009 30.3849 25.8746 30.4953 25.9247 30.6169C25.9748 30.7384 26.0004 30.8686 26 31V55H13.499C12.6347 54.3493 11.5818 53.9983 10.5 54C9.41817 53.9983 8.36529 54.3493 7.50101 55Z" fill="#D2AC69"/>
<path fill-rule="evenodd" clip-rule="evenodd" d="M32.355 57C32.599 57 32.834 56.911 33.017 56.75C33.564 56.2659 34.2695 55.999 35 56C35.76 56 36.454 56.283 36.983 56.75C37.166 56.911 37.401 57 37.645 57H41C41.2652 57 41.5195 56.8946 41.7071 56.7071C41.8946 56.5196 42 56.2652 42 56V47.518C42 47.008 41.87 46.507 41.622 46.061L37.446 38.543C37.1861 38.0753 36.8058 37.6855 36.3446 37.4142C35.8834 37.1429 35.3581 36.9999 34.823 37H27C26.7348 37 26.4804 37.1054 26.2929 37.2929C26.1053 37.4804 26 37.7348 26 38V56C26 56.2652 26.1053 56.5196 26.2929 56.7071C26.4804 56.8946 26.7348 57 27 57H32.355ZM32.001 55H28V39H34.823C35.0012 39 35.1763 39.0476 35.3299 39.138C35.4836 39.2284 35.6103 39.3582 35.697 39.514L39.874 47.033C39.9569 47.1812 40.0003 47.3482 40 47.518V55H37.999C37.1347 54.3493 36.0818 53.9983 35 54C33.9181 53.9983 32.8653 54.3493 32.001 55ZM10.5 54C7.74097 54 5.50098 56.24 5.50098 59C5.50098 61.76 7.74098 64 10.501 64C13.26 64 15.501 61.76 15.501 59C15.501 56.24 13.26 54 10.501 54H10.5ZM10.5 56C12.156 56 13.501 57.345 13.501 59C13.501 60.655 12.156 62 10.501 62C9.70533 62 8.94226 61.6839 8.37965 61.1213C7.81704 60.5587 7.50098 59.7956 7.50098 59C7.50098 58.2044 7.81704 57.4413 8.37965 56.8787C8.94226 56.3161 9.70533 56 10.501 56H10.5Z" fill="#D2AC69"/>
<path fill-rule="evenodd" clip-rule="evenodd" d="M37.645 55C37.4418 54.9999 37.2435 55.0617 37.0763 55.1771C36.9091 55.2925 36.781 55.4562 36.7091 55.6462C36.6372 55.8362 36.6249 56.0436 36.6739 56.2408C36.7228 56.438 36.8306 56.6156 36.983 56.75C37.3992 57.1158 37.7058 57.5899 37.8686 58.1195C38.0314 58.6492 38.044 59.2136 37.905 59.75C37.8672 59.8978 37.8637 60.0523 37.8947 60.2017C37.9258 60.351 37.9904 60.4913 38.0839 60.6119C38.1774 60.7325 38.2971 60.8301 38.4341 60.8974C38.571 60.9646 38.7214 60.9997 38.874 61H42.034C42.8205 60.9997 43.5748 60.6872 44.131 60.131C44.6872 59.5748 44.9997 58.8205 45 58.034V58.032C45.0001 57.6338 44.9218 57.2395 44.7695 56.8716C44.6171 56.5036 44.3938 56.1693 44.1122 55.8878C43.8307 55.6062 43.4964 55.3829 43.1284 55.2305C42.7605 55.0782 42.3662 54.9999 41.968 55H37.645ZM13.145 55C12.9418 54.9999 12.7435 55.0617 12.5763 55.1771C12.4091 55.2925 12.281 55.4562 12.2091 55.6462C12.1372 55.8362 12.1249 56.0436 12.1739 56.2408C12.2228 56.438 12.3306 56.6156 12.483 56.75C12.8991 57.1155 13.2056 57.5892 13.3686 58.1184C13.5315 58.6477 13.5445 59.2118 13.406 59.748C13.3682 59.8957 13.3647 60.05 13.3956 60.1992C13.4266 60.3485 13.4912 60.4887 13.5846 60.6092C13.678 60.7297 13.7976 60.8272 13.9344 60.8944C14.0712 60.9616 14.2216 60.9967 14.374 60.997L31.126 60.999C31.2785 60.9989 31.4289 60.964 31.5658 60.8968C31.7027 60.8297 31.8225 60.7321 31.9159 60.6116C32.0093 60.491 32.0739 60.3507 32.1048 60.2014C32.1357 60.0521 32.132 59.8977 32.094 59.75C31.9551 59.2135 31.9679 58.649 32.1309 58.1194C32.2938 57.5897 32.6006 57.1156 33.017 56.75C33.1694 56.6156 33.2772 56.438 33.3261 56.2408C33.3751 56.0436 33.3628 55.8362 33.2909 55.6462C33.219 55.4562 33.0909 55.2925 32.9237 55.1771C32.7565 55.0617 32.5582 54.9999 32.355 55H13.145ZM8.517 56.75C8.66938 56.6156 8.7772 56.438 8.82613 56.2408C8.87505 56.0436 8.86276 55.8362 8.79088 55.6462C8.71899 55.4562 8.59093 55.2925 8.42374 55.1771C8.25655 55.0617 8.05817 54.9999 7.855 55H4.004C3.60949 54.9998 3.21882 55.0775 2.85436 55.2285C2.48989 55.3795 2.15879 55.6009 1.88001 55.88C1.60087 56.1588 1.37946 56.4899 1.22845 56.8544C1.07745 57.2188 0.999821 57.6095 1 58.004V58.006C0.999869 58.3987 1.07711 58.7877 1.22731 59.1505C1.37751 59.5134 1.59774 59.8432 1.8754 60.1209C2.15306 60.3987 2.48272 60.619 2.84555 60.7693C3.20838 60.9196 3.59727 60.997 3.99001 60.997H6.625C6.77744 60.9967 6.92781 60.9616 7.06464 60.8944C7.20147 60.8272 7.32115 60.7296 7.4146 60.6092C7.50804 60.4887 7.57278 60.3486 7.60387 60.1993C7.63495 60.0501 7.63157 59.8957 7.59399 59.748C7.45553 59.2118 7.46849 58.6477 7.63144 58.1184C7.79439 57.5892 8.10094 57.1155 8.517 56.75ZM40 59C40 58.289 39.851 57.613 39.584 57H39.583H41.968C42.2414 57.0008 42.5035 57.1098 42.6969 57.3031C42.8902 57.4965 42.9992 57.7586 43 58.032V58.034C42.9997 58.2901 42.8979 58.5357 42.7168 58.7168C42.5357 58.8979 42.2901 58.9997 42.034 59H40ZM30 58.999L15.5 58.998C15.5 58.288 15.351 57.612 15.084 57H15.083H30.417C30.1411 57.6303 29.9991 58.311 30 58.999ZM5.5 58.997H3.99001C3.72752 58.9967 3.47586 58.8924 3.29025 58.7068C3.10465 58.5212 3.00026 58.2695 3 58.007V58.004C3.00026 57.7378 3.10613 57.4826 3.29436 57.2943C3.48259 57.1061 3.7378 57.0003 4.004 57H5.916C5.64105 57.6298 5.49942 58.3098 5.5 58.997Z" fill="#D2AC69"/>
</svg>
