<svg width="64" height="64" viewBox="0 0 64 64" fill="none" xmlns="http://www.w3.org/2000/svg">
<g clip-path="url(#clip0_11_287)">
<path d="M61 7H3C2.20435 7 1.44129 7.31607 0.87868 7.87868C0.31607 8.44129 0 9.20435 0 10L0 44C0 44.7957 0.31607 45.5587 0.87868 46.1213C1.44129 46.6839 2.20435 47 3 47H3.5V49C3.5 49.7957 3.81607 50.5587 4.37868 51.1213C4.94129 51.6839 5.70435 52 6.5 52H7V54C7 54.7957 7.31607 55.5587 7.87868 56.1213C8.44129 56.6839 9.20435 57 10 57H54C54.7957 57 55.5587 56.6839 56.1213 56.1213C56.6839 55.5587 57 54.7957 57 54V52H57.5C58.2957 52 59.0587 51.6839 59.6213 51.1213C60.1839 50.5587 60.5 49.7957 60.5 49V47H61C61.7957 47 62.5587 46.6839 63.1213 46.1213C63.6839 45.5587 64 44.7957 64 44V10C64 9.20435 63.6839 8.44129 63.1213 7.87868C62.5587 7.31607 61.7957 7 61 7ZM55 54C55 54.2652 54.8946 54.5196 54.7071 54.7071C54.5196 54.8946 54.2652 55 54 55H10C9.73478 55 9.48043 54.8946 9.29289 54.7071C9.10536 54.5196 9 54.2652 9 54V52H55V54ZM58.5 49C58.5 49.2652 58.3946 49.5196 58.2071 49.7071C58.0196 49.8946 57.7652 50 57.5 50H6.5C6.23478 50 5.98043 49.8946 5.79289 49.7071C5.60536 49.5196 5.5 49.2652 5.5 49V47H58.5V49ZM62 44C62 44.2652 61.8946 44.5196 61.7071 44.7071C61.5196 44.8946 61.2652 45 61 45H3C2.73478 45 2.48043 44.8946 2.29289 44.7071C2.10536 44.5196 2 44.2652 2 44V10C2 9.73478 2.10536 9.48043 2.29289 9.29289C2.48043 9.10536 2.73478 9 3 9H61C61.2652 9 61.5196 9.10536 61.7071 9.29289C61.8946 9.48043 62 9.73478 62 10V44Z" fill="#D2AC69"/>
<path d="M56 21C54.4087 21 52.8826 20.3679 51.7574 19.2426C50.6321 18.1174 50 16.5913 50 15C50 14.7348 49.8946 14.4804 49.7071 14.2929C49.5196 14.1054 49.2652 14 49 14H15C14.7348 14 14.4804 14.1054 14.2929 14.2929C14.1054 14.4804 14 14.7348 14 15C14 16.5913 13.3679 18.1174 12.2426 19.2426C11.1174 20.3679 9.5913 21 8 21C7.73478 21 7.48043 21.1054 7.29289 21.2929C7.10536 21.4804 7 21.7348 7 22V32C7 32.2652 7.10536 32.5196 7.29289 32.7071C7.48043 32.8946 7.73478 33 8 33C9.5913 33 11.1174 33.6321 12.2426 34.7574C13.3679 35.8826 14 37.4087 14 39C14 39.2652 14.1054 39.5196 14.2929 39.7071C14.4804 39.8946 14.7348 40 15 40H49C49.2652 40 49.5196 39.8946 49.7071 39.7071C49.8946 39.5196 50 39.2652 50 39C50 37.4087 50.6321 35.8826 51.7574 34.7574C52.8826 33.6321 54.4087 33 56 33C56.2652 33 56.5196 32.8946 56.7071 32.7071C56.8946 32.5196 57 32.2652 57 32V22C57 21.7348 56.8946 21.4804 56.7071 21.2929C56.5196 21.1054 56.2652 21 56 21ZM55 31.06C53.2367 31.2816 51.5974 32.084 50.3407 33.3407C49.084 34.5974 48.2816 36.2367 48.06 38H15.94C15.7184 36.2367 14.916 34.5974 13.6593 33.3407C12.4026 32.084 10.7633 31.2816 9 31.06V22.94C10.7633 22.7184 12.4026 21.916 13.6593 20.6593C14.916 19.4026 15.7184 17.7633 15.94 16H48.06C48.2816 17.7633 49.084 19.4026 50.3407 20.6593C51.5974 21.916 53.2367 22.7184 55 22.94V31.06Z" fill="#D2AC69"/>
<path d="M32 18C30.22 18 28.4799 18.5278 26.9999 19.5168C25.5198 20.5057 24.3663 21.9113 23.6851 23.5558C23.0039 25.2004 22.8257 27.01 23.1729 28.7558C23.5202 30.5016 24.3774 32.1053 25.636 33.364C26.8947 34.6226 28.4984 35.4798 30.2442 35.8271C31.99 36.1743 33.7996 35.9961 35.4442 35.3149C37.0887 34.6337 38.4943 33.4802 39.4832 32.0001C40.4722 30.5201 41 28.78 41 27C41 24.6131 40.0518 22.3239 38.364 20.636C36.6761 18.9482 34.387 18 32 18ZM32 34C30.6155 34 29.2622 33.5895 28.111 32.8203C26.9599 32.0511 26.0627 30.9579 25.5328 29.6788C25.003 28.3997 24.8644 26.9922 25.1345 25.6344C25.4046 24.2765 26.0713 23.0292 27.0503 22.0503C28.0292 21.0713 29.2765 20.4046 30.6344 20.1345C31.9922 19.8644 33.3997 20.003 34.6788 20.5328C35.9579 21.0627 37.0511 21.9599 37.8203 23.111C38.5895 24.2622 39 25.6155 39 27C39 28.8565 38.2625 30.637 36.9498 31.9497C35.637 33.2625 33.8565 34 32 34Z" fill="#D2AC69"/>
</g>
<defs>
<clipPath id="clip0_11_287">
<rect width="64" height="64" fill="white"/>
</clipPath>
</defs>
</svg>
