<svg width="70" height="70" viewBox="0 0 70 70" fill="none" xmlns="http://www.w3.org/2000/svg">
<path d="M33.9062 29.5313H36.0937C36.6739 29.5313 37.2303 29.7617 37.6405 30.172C38.0507 30.5822 38.2812 31.1386 38.2812 31.7188C38.2812 32.0088 38.3964 32.287 38.6016 32.4922C38.8067 32.6973 39.0849 32.8125 39.375 32.8125C39.665 32.8125 39.9432 32.6973 40.1484 32.4922C40.3535 32.287 40.4687 32.0088 40.4687 31.7188C40.4687 30.5584 40.0078 29.4456 39.1873 28.6252C38.3668 27.8047 37.254 27.3438 36.0937 27.3438V26.25C36.0937 25.9599 35.9785 25.6817 35.7734 25.4766C35.5682 25.2715 35.29 25.1563 35 25.1563C34.7099 25.1563 34.4317 25.2715 34.2266 25.4766C34.0214 25.6817 33.9062 25.9599 33.9062 26.25V27.3438C32.7459 27.3438 31.6331 27.8047 30.8126 28.6252C29.9922 29.4456 29.5312 30.5584 29.5312 31.7188C29.5312 32.8791 29.9922 33.9919 30.8126 34.8124C31.6331 35.6328 32.7459 36.0938 33.9062 36.0938H36.0937C36.6739 36.0938 37.2303 36.3242 37.6405 36.7345C38.0507 37.1447 38.2812 37.7011 38.2812 38.2813C38.2812 38.8614 38.0507 39.4178 37.6405 39.8281C37.2303 40.2383 36.6739 40.4688 36.0937 40.4688H33.9062C33.3261 40.4688 32.7697 40.2383 32.3594 39.8281C31.9492 39.4178 31.7187 38.8614 31.7187 38.2813C31.7187 37.9912 31.6035 37.713 31.3984 37.5079C31.1932 37.3027 30.915 37.1875 30.625 37.1875C30.3349 37.1875 30.0567 37.3027 29.8516 37.5079C29.6464 37.713 29.5312 37.9912 29.5312 38.2813C29.5312 39.4416 29.9922 40.5544 30.8126 41.3749C31.6331 42.1953 32.7459 42.6563 33.9062 42.6563V43.75C33.9062 44.0401 34.0214 44.3183 34.2266 44.5234C34.4317 44.7285 34.7099 44.8438 35 44.8438C35.29 44.8438 35.5682 44.7285 35.7734 44.5234C35.9785 44.3183 36.0937 44.0401 36.0937 43.75V42.6563C37.254 42.6563 38.3668 42.1953 39.1873 41.3749C40.0078 40.5544 40.4687 39.4416 40.4687 38.2813C40.4687 37.1209 40.0078 36.0081 39.1873 35.1877C38.3668 34.3672 37.254 33.9063 36.0937 33.9063H33.9062C33.3261 33.9063 32.7697 33.6758 32.3594 33.2656C31.9492 32.8553 31.7187 32.2989 31.7187 31.7188C31.7187 31.1386 31.9492 30.5822 32.3594 30.172C32.7697 29.7617 33.3261 29.5313 33.9062 29.5313ZM54.2346 17.5C50.6528 16.7951 47.1905 15.5804 43.9534 13.8928C41.4784 12.5994 39.1536 11.0368 37.0212 9.23345C36.4564 8.75094 35.7418 8.47915 34.9991 8.46439C34.2564 8.44963 33.5316 8.69282 32.9481 9.15251C30.7634 10.8479 28.4284 12.3401 25.9722 13.6106C22.6914 15.3068 19.216 16.5967 15.6231 17.4519C14.9088 17.623 14.2734 18.0306 13.8199 18.6084C13.3664 19.1861 13.1215 19.9002 13.125 20.6347V33.8428C13.1572 40.1146 15.3025 46.1924 19.2145 51.0947C23.1265 55.997 28.5767 59.4375 34.685 60.8606C34.8649 60.9132 35.0552 60.92 35.2384 60.8803C41.3643 59.4717 46.8346 56.0347 50.762 51.127C54.6894 46.2192 56.8435 40.1285 56.875 33.8428V20.7178C56.8749 19.9589 56.6118 19.2234 56.1303 18.6367C55.6489 18.05 54.979 17.6483 54.2346 17.5ZM54.6875 33.8428C54.6583 39.5894 52.7027 45.1602 49.1335 49.6641C45.5644 54.168 40.5878 57.3447 35 58.6863C29.4123 57.3444 24.436 54.1675 20.8668 49.6637C17.2977 45.1599 15.342 39.5893 15.3125 33.8428V20.6347C15.3103 20.3925 15.3899 20.1567 15.5384 19.9654C15.6868 19.7741 15.8955 19.6384 16.1306 19.5803C19.8962 18.6831 23.5389 17.3315 26.9784 15.5553C29.553 14.2226 32.0007 12.6579 34.2912 10.8806C34.4797 10.7338 34.7128 10.656 34.9517 10.6604C35.1906 10.6648 35.4208 10.751 35.6037 10.9047C37.86 12.8111 40.319 14.4638 42.9362 15.8331C46.3605 17.6176 50.0233 18.9009 53.8125 19.6438C54.0601 19.6913 54.2833 19.8242 54.4431 20.0192C54.603 20.2142 54.6894 20.4591 54.6875 20.7113V33.8428ZM35 20.7813C32.1878 20.7813 29.4387 21.6152 27.1005 23.1776C24.7622 24.7399 22.9397 26.9606 21.8636 29.5587C20.7874 32.1569 20.5058 35.0158 21.0544 37.774C21.6031 40.5321 22.9573 43.0657 24.9458 45.0542C26.9343 47.0427 29.4679 48.3969 32.226 48.9456C34.9842 49.4942 37.8431 49.2126 40.4412 48.1364C43.0394 47.0602 45.26 45.2378 46.8224 42.8995C48.3848 40.5613 49.2187 37.8122 49.2187 35C49.2141 31.2304 47.7146 27.6165 45.049 24.951C42.3835 22.2854 38.7696 20.7859 35 20.7813ZM35 47.0313C32.6204 47.0313 30.2943 46.3256 28.3158 45.0036C26.3372 43.6816 24.7952 41.8026 23.8845 39.6042C22.9739 37.4058 22.7357 34.9867 23.1999 32.6528C23.6641 30.319 24.81 28.1752 26.4926 26.4926C28.1752 24.81 30.319 23.6642 32.6528 23.1999C34.9866 22.7357 37.4057 22.974 39.6041 23.8846C41.8026 24.7952 43.6816 26.3373 45.0036 28.3158C46.3256 30.2943 47.0312 32.6205 47.0312 35C47.0272 38.1897 45.7583 41.2475 43.5029 43.5029C41.2474 45.7583 38.1896 47.0272 35 47.0313ZM60.7753 12.6197C55.8421 11.7036 51.0728 10.058 46.6243 7.7372C43.6595 6.18542 40.856 4.34327 38.255 2.23782C37.3093 1.48698 36.1403 1.07268 34.9328 1.0604C33.7254 1.04812 32.5482 1.43856 31.5875 2.17001C28.9615 4.12349 26.1816 5.86095 23.275 7.36532C18.7799 9.68796 14.01 11.4349 9.07809 12.565C8.35908 12.7307 7.71801 13.1365 7.26068 13.7155C6.80334 14.2945 6.55706 15.0122 6.56246 15.75V33.6875C6.60463 41.8676 9.40509 49.7944 14.5109 56.1856C19.6167 62.5767 26.7292 67.0586 34.6981 68.9063C34.7963 68.9339 34.8979 68.9479 35 68.9478C35.0802 68.9476 35.1601 68.9388 35.2384 68.9216C43.2221 67.0868 50.3516 62.6082 55.4703 56.2125C60.589 49.8168 63.3966 41.8792 63.4375 33.6875V15.8353C63.4389 15.0729 63.1734 14.3339 62.6872 13.7466C62.201 13.1593 61.5246 12.7606 60.7753 12.6197ZM61.25 33.6875C61.2081 41.3383 58.5978 48.7533 53.8377 54.7431C49.0776 60.7329 42.4437 64.9503 35 66.7188C27.5565 64.9499 20.9227 60.7324 16.1627 54.7427C11.4026 48.753 8.79217 41.3382 8.74996 33.6875V15.75C8.74637 15.5066 8.82591 15.2692 8.97546 15.0771C9.125 14.885 9.3356 14.7497 9.57246 14.6934C14.6816 13.5226 19.6233 11.7139 24.2812 9.31001C27.2919 7.75026 30.1714 5.94916 32.8912 3.92439C33.4621 3.48333 34.1638 3.24517 34.8852 3.24754C35.6066 3.24992 36.3067 3.49271 36.8747 3.93751C39.5888 6.13386 42.5139 8.05586 45.6072 9.67532C50.2495 12.097 55.2267 13.8133 60.375 14.7678C60.6236 14.8134 60.848 14.9457 61.0082 15.1411C61.1684 15.3366 61.2541 15.5826 61.25 15.8353V33.6875Z" fill="#D2AC69"/>
</svg>
