<svg width="62" height="62" viewBox="0 0 62 62" fill="none" xmlns="http://www.w3.org/2000/svg">
<path d="M30.9535 1.43375L29.5546 3.00312C23.6259 9.66037 15.3954 12.803 5.57613 14.0004L3.875 14.2057V15.9224C3.875 25.9199 5.99075 35.619 10.3695 43.5705C14.7483 51.522 21.4675 57.7259 30.4459 60.4035L31.0232 60.5779L31.5968 60.3802C48.949 54.7731 58.125 36.5064 58.125 15.9224V14.3801L56.6176 14.0236C47.0658 11.8226 38.2579 9.14887 32.4066 2.96825L30.9535 1.42987V1.43375ZM31.0465 6.5875C37.3201 12.4465 45.5584 15.2675 54.0911 17.3057C53.6842 35.8321 45.5778 51.2856 30.9845 56.3735C23.3856 53.9129 17.6468 48.7397 13.7679 41.6989C9.98587 34.8401 8.11037 26.2686 7.90887 17.3561C16.8795 15.996 24.8891 12.7836 31.0426 6.5875H31.0465ZM41.3462 23.1764L27.2141 35.5492L20.7429 29.0857L18.0033 31.8254L27.032 40.8541L43.9038 26.0942L41.3462 23.1764Z" fill="#D2AC69"/>
</svg>
